<?xml version="1.0" standalone="no"?>
 <!DOCTYPE svg PUBLIC "-//W3C//DTD SVG 1.1//EN" 
 "http://www.w3.org/Graphics/SVG/1.1/DTD/svg11.dtd"> 
<svg xmlns="http://www.w3.org/2000/svg" version="1.1" 
    width="29.7002cm" height="21.0007cm" viewBox="0 0 116930 82680 ">
<title>SVG Picture created as jmotes_dongle_kicad-F_Cu.svg date 2014/03/31 19:19:23 </title>
  <desc>Picture generated by PCBNEW </desc>
<g style="fill:#000000; fill-opacity:1;stroke:#000000; stroke-opacity:1;
stroke-linecap:round; stroke-linejoin:round; "
 transform="translate(0 0) scale(1 1)">
</g>
<g style="fill:#000000; fill-opacity:0.0; 
stroke:#000000; stroke-width:39.3701; stroke-opacity:1; 
stroke-linecap:round; stroke-linejoin:round;">
<rect x="-845466" y="-845466" width="0" height="0" rx="0" />
<rect x="-845466" y="-845466" width="0" height="0" rx="0" />
<path d="M-845466 -845466
L-845466 -845466
" />
<path d="M-845466 -845466
L-845466 -845466
" />
<path d="M-845466 -845466
L-845466 -845466
" />
<path d="M-845466 -845466
L-845466 -845466
" />
<path d="M-845466 -845466
L-845466 -845466
" />
<path d="M-845353 -845227
L-845269 -845199
L-845128 -845199
L-845072 -845227
L-845044 -845255
L-845016 -845311
L-845016 -845367
L-845044 -845423
L-845072 -845451
L-845128 845451
L-845241 845423
L-845297 845395
L-845325 845367
L-845353 845311
L-845353 845255
L-845325 845199
L-845297 845171
L-845241 845142
L-845100 845142
L-845016 845171
" />
<path d="M-844763 -845199
L-844763 845142
" />
<path d="M-844510 -845199
L-844510 845423
L-844538 845367
L-844595 845339
L-844679 845339
L-844735 845367
L-844763 845395
" />
<path d="M-844005 -845227
L-844061 -845199
L-844173 -845199
L-844229 -845227
L-844257 -845283
L-844257 845423
L-844229 845367
L-844173 845339
L-844061 845339
L-844005 845367
L-843976 845423
L-843976 -845451
L-844257 -845395
" />
<path d="M-843499 -845227
L-843555 -845199
L-843667 -845199
L-843724 -845227
L-843752 -845283
L-843752 845423
L-843724 845367
L-843667 845339
L-843555 845339
L-843499 845367
L-843471 845423
L-843471 -845451
L-843752 -845395
" />
<path d="M-843302 845339
L-843077 845339
" />
<path d="M-843218 845142
L-843218 -845283
L-843190 -845227
L-843134 -845199
L-843077 -845199
" />
<path d="M-842881 -845255
L-842853 -845227
L-842881 -845199
L-842909 -845227
L-842881 -845255
L-842881 -845199
" />
<path d="M-842881 845367
L-842853 845395
L-842881 845423
L-842909 845395
L-842881 845367
L-842881 845423
" />
<path d="M-841729 845114
L-842235 -845058
" />
<path d="M-841532 -845199
L-841532 845142
" />
<path d="M-841279 -845199
L-841279 845423
L-841307 845367
L-841364 845339
L-841448 845339
L-841504 845367
L-841532 845395
" />
<path d="M-840914 -845199
L-840970 -845227
L-840998 -845255
L-841026 -845311
L-841026 845451
L-840998 845395
L-840970 845367
L-840914 845339
L-840830 845339
L-840774 845367
L-840746 845395
L-840717 845451
L-840717 -845311
L-840746 -845255
L-840774 -845227
L-840830 -845199
L-840914 -845199
" />
<path d="M-840465 -845199
L-840465 845339
" />
<path d="M-840465 845395
L-840436 845367
L-840380 845339
L-840296 845339
L-840240 845367
L-840212 845423
L-840212 -845199
" />
<path d="M-840212 845423
L-840184 845367
L-840127 845339
L-840043 845339
L-839987 845367
L-839959 845423
L-839959 -845199
" />
<path d="M-839453 -845227
L-839509 -845199
L-839622 -845199
L-839678 -845227
L-839706 -845283
L-839706 845423
L-839678 845367
L-839622 845339
L-839509 845339
L-839453 845367
L-839425 845423
L-839425 -845451
L-839706 -845395
" />
<path d="M-838751 845114
L-839256 -845058
" />
<path d="M-838554 845339
L-838554 -845086
L-838582 -845030
L-838638 -845002
L-838666 -845002
" />
<path d="M-838554 845142
L-838582 845171
L-838554 845199
L-838526 845171
L-838554 845142
L-838554 845199
" />
<path d="M-838189 -845199
L-838245 -845227
L-838273 -845255
L-838301 -845311
L-838301 845451
L-838273 845395
L-838245 845367
L-838189 845339
L-838105 845339
L-838048 845367
L-838020 845395
L-837992 845451
L-837992 -845311
L-838020 -845255
L-838048 -845227
L-838105 -845199
L-838189 -845199
" />
<path d="M-837486 -845199
L-837486 845423
L-837515 845367
L-837571 845339
L-837683 845339
L-837739 845367
" />
<path d="M-837486 -845227
L-837543 -845199
L-837683 -845199
L-837739 -845227
L-837767 -845283
L-837767 -845339
L-837739 -845395
L-837683 -845423
L-837543 -845423
L-837486 -845451
" />
<path d="M-837121 -845199
L-837177 -845227
L-837206 -845255
L-837234 -845311
L-837234 845451
L-837206 845395
L-837177 845367
L-837121 845339
L-837037 845339
L-836981 845367
L-836953 845395
L-836925 845451
L-836925 -845311
L-836953 -845255
L-836981 -845227
L-837037 -845199
L-837121 -845199
" />
<path d="M-836250 845114
L-836756 -845058
" />
<path d="M-836054 -845199
L-836054 845142
" />
<path d="M-835997 -845423
L-835829 -845199
" />
<path d="M-835829 845339
L-836054 -845367
" />
<path d="M-835576 -845199
L-835576 845339
" />
<path d="M-835576 845142
L-835604 845171
L-835576 845199
L-835548 845171
L-835576 845142
L-835576 845199
" />
<path d="M-835042 -845227
L-835098 -845199
L-835211 -845199
L-835267 -845227
L-835295 -845255
L-835323 -845311
L-835323 845451
L-835295 845395
L-835267 845367
L-835211 845339
L-835098 845339
L-835042 845367
" />
<path d="M-834536 -845199
L-834536 845423
L-834565 845367
L-834621 845339
L-834733 845339
L-834789 845367
" />
<path d="M-834536 -845227
L-834593 -845199
L-834733 -845199
L-834789 -845227
L-834817 -845283
L-834817 -845339
L-834789 -845395
L-834733 -845423
L-834593 -845423
L-834536 -845451
" />
<path d="M-834003 -845199
L-834003 845142
" />
<path d="M-834003 -845227
L-834059 -845199
L-834171 -845199
L-834227 -845227
L-834256 -845255
L-834284 -845311
L-834284 845451
L-834256 845395
L-834227 845367
L-834171 845339
L-834059 845339
L-834003 845367
" />
<path d="M-833300 845114
L-833806 -845058
" />
<path d="M-833104 845339
L-833104 -845086
L-833132 -845030
L-833188 -845002
L-833216 -845002
" />
<path d="M-833104 845142
L-833132 845171
L-833104 845199
L-833076 845171
L-833104 845142
L-833104 845199
" />
<path d="M-832823 -845199
L-832823 845339
" />
<path d="M-832823 845395
L-832795 845367
L-832738 845339
L-832654 845339
L-832598 845367
L-832570 845423
L-832570 -845199
" />
<path d="M-832570 845423
L-832542 845367
L-832486 845339
L-832401 845339
L-832345 845367
L-832317 845423
L-832317 -845199
" />
<path d="M-831952 -845199
L-832008 -845227
L-832036 -845255
L-832064 -845311
L-832064 845451
L-832036 845395
L-832008 845367
L-831952 845339
L-831867 845339
L-831811 845367
L-831783 845395
L-831755 845451
L-831755 -845311
L-831783 -845255
L-831811 -845227
L-831867 -845199
L-831952 -845199
" />
<path d="M-831586 845339
L-831362 845339
" />
<path d="M-831502 845142
L-831502 -845283
L-831474 -845227
L-831418 -845199
L-831362 -845199
" />
<path d="M-830940 -845227
L-830996 -845199
L-831109 -845199
L-831165 -845227
L-831193 -845283
L-831193 845423
L-831165 845367
L-831109 845339
L-830996 845339
L-830940 845367
L-830912 845423
L-830912 -845451
L-831193 -845395
" />
<path d="M-830687 -845227
L-830631 -845199
L-830519 -845199
L-830463 -845227
L-830435 -845283
L-830435 -845311
L-830463 -845367
L-830519 -845395
L-830603 -845395
L-830659 -845423
L-830687 845451
L-830687 845423
L-830659 845367
L-830603 845339
L-830519 845339
L-830463 845367
" />
<path d="M-830322 -845142
L-829873 -845142
" />
<path d="M-829479 -845199
L-829479 845142
" />
<path d="M-829479 -845227
L-829536 -845199
L-829648 -845199
L-829704 -845227
L-829732 -845255
L-829760 -845311
L-829760 845451
L-829732 845395
L-829704 845367
L-829648 845339
L-829536 845339
L-829479 845367
" />
<path d="M-829114 -845199
L-829170 -845227
L-829198 -845255
L-829226 -845311
L-829226 845451
L-829198 845395
L-829170 845367
L-829114 845339
L-829030 845339
L-828974 845367
L-828946 845395
L-828917 845451
L-828917 -845311
L-828946 -845255
L-828974 -845227
L-829030 -845199
L-829114 -845199
" />
<path d="M-828665 845339
L-828665 -845199
" />
<path d="M-828665 845395
L-828636 845367
L-828580 845339
L-828496 845339
L-828440 845367
L-828412 845423
L-828412 -845199
" />
<path d="M-827878 845339
L-827878 -845114
L-827906 -845058
L-827934 -845030
L-827990 -845002
L-828075 -845002
L-828131 -845030
" />
<path d="M-827878 -845227
L-827934 -845199
L-828046 -845199
L-828103 -845227
L-828131 -845255
L-828159 -845311
L-828159 845451
L-828131 845395
L-828103 845367
L-828046 845339
L-827934 845339
L-827878 845367
" />
<path d="M-827513 -845199
L-827569 -845227
L-827597 -845283
L-827597 845142
" />
<path d="M-827063 -845227
L-827119 -845199
L-827232 -845199
L-827288 -845227
L-827316 -845283
L-827316 845423
L-827288 845367
L-827232 845339
L-827119 845339
L-827063 845367
L-827035 845423
L-827035 -845451
L-827316 -845395
" />
<path d="M-826923 -845142
L-826473 -845142
" />
<path d="M-826333 -845199
L-826333 845142
" />
<path d="M-826276 -845423
L-826108 -845199
" />
<path d="M-826108 845339
L-826333 -845367
" />
<path d="M-825855 -845199
L-825855 845339
" />
<path d="M-825855 845142
L-825883 845171
L-825855 845199
L-825827 845171
L-825855 845142
L-825855 845199
" />
<path d="M-825321 -845227
L-825377 -845199
L-825490 -845199
L-825546 -845227
L-825574 -845255
L-825602 -845311
L-825602 845451
L-825574 845395
L-825546 845367
L-825490 845339
L-825377 845339
L-825321 845367
" />
<path d="M-824816 -845199
L-824816 845423
L-824844 845367
L-824900 845339
L-825012 845339
L-825068 845367
" />
<path d="M-824816 -845227
L-824872 -845199
L-825012 -845199
L-825068 -845227
L-825096 -845283
L-825096 -845339
L-825068 -845395
L-825012 -845423
L-824872 -845423
L-824816 -845451
" />
<path d="M-824282 -845199
L-824282 845142
" />
<path d="M-824282 -845227
L-824338 -845199
L-824450 -845199
L-824506 -845227
L-824535 -845255
L-824563 -845311
L-824563 845451
L-824535 845395
L-824506 845367
L-824450 845339
L-824338 845339
L-824282 845367
" />
<path d="M-823579 845114
L-824085 -845058
" />
<path d="M-823383 845339
L-823383 -845086
L-823411 -845030
L-823467 -845002
L-823495 -845002
" />
<path d="M-823383 845142
L-823411 845171
L-823383 845199
L-823355 845171
L-823383 845142
L-823383 845199
" />
<path d="M-823102 -845199
L-823102 845339
" />
<path d="M-823102 845395
L-823074 845367
L-823017 845339
L-822933 845339
L-822877 845367
L-822849 845423
L-822849 -845199
" />
<path d="M-822849 845423
L-822821 845367
L-822765 845339
L-822680 845339
L-822624 845367
L-822596 845423
L-822596 -845199
" />
<path d="M-822231 -845199
L-822287 -845227
L-822315 -845255
L-822343 -845311
L-822343 845451
L-822315 845395
L-822287 845367
L-822231 845339
L-822146 845339
L-822090 845367
L-822062 845395
L-822034 845451
L-822034 -845311
L-822062 -845255
L-822090 -845227
L-822146 -845199
L-822231 -845199
" />
<path d="M-821866 845339
L-821641 845339
" />
<path d="M-821781 845142
L-821781 -845283
L-821753 -845227
L-821697 -845199
L-821641 -845199
" />
<path d="M-821219 -845227
L-821276 -845199
L-821388 -845199
L-821444 -845227
L-821472 -845283
L-821472 845423
L-821444 845367
L-821388 845339
L-821276 845339
L-821219 845367
L-821191 845423
L-821191 -845451
L-821472 -845395
" />
<path d="M-820966 -845227
L-820910 -845199
L-820798 -845199
L-820742 -845227
L-820714 -845283
L-820714 -845311
L-820742 -845367
L-820798 -845395
L-820882 -845395
L-820938 -845423
L-820966 845451
L-820966 845423
L-820938 845367
L-820882 845339
L-820798 845339
L-820742 845367
" />
<path d="M-820601 -845142
L-820152 -845142
" />
<path d="M-819758 -845199
L-819758 845142
" />
<path d="M-819758 -845227
L-819815 -845199
L-819927 -845199
L-819983 -845227
L-820011 -845255
L-820039 -845311
L-820039 845451
L-820011 845395
L-819983 845367
L-819927 845339
L-819815 845339
L-819758 845367
" />
<path d="M-819393 -845199
L-819449 -845227
L-819477 -845255
L-819506 -845311
L-819506 845451
L-819477 845395
L-819449 845367
L-819393 845339
L-819309 845339
L-819253 845367
L-819225 845395
L-819196 845451
L-819196 -845311
L-819225 -845255
L-819253 -845227
L-819309 -845199
L-819393 -845199
" />
<path d="M-818944 845339
L-818944 -845199
" />
<path d="M-818944 845395
L-818916 845367
L-818859 845339
L-818775 845339
L-818719 845367
L-818691 845423
L-818691 -845199
" />
<path d="M-818157 845339
L-818157 -845114
L-818185 -845058
L-818213 -845030
L-818269 -845002
L-818354 -845002
L-818410 -845030
" />
<path d="M-818157 -845227
L-818213 -845199
L-818326 -845199
L-818382 -845227
L-818410 -845255
L-818438 -845311
L-818438 845451
L-818410 845395
L-818382 845367
L-818326 845339
L-818213 845339
L-818157 845367
" />
<path d="M-817792 -845199
L-817848 -845227
L-817876 -845283
L-817876 845142
" />
<path d="M-817342 -845227
L-817398 -845199
L-817511 -845199
L-817567 -845227
L-817595 -845283
L-817595 845423
L-817567 845367
L-817511 845339
L-817398 845339
L-817342 845367
L-817314 845423
L-817314 -845451
L-817595 -845395
" />
<path d="M-817202 -845142
L-816752 -845142
" />
<path d="M-816612 -845199
L-816612 845142
" />
<path d="M-816556 -845423
L-816387 -845199
" />
<path d="M-816387 845339
L-816612 -845367
" />
<path d="M-816134 -845199
L-816134 845339
" />
<path d="M-816134 845142
L-816162 845171
L-816134 845199
L-816106 845171
L-816134 845142
L-816134 845199
" />
<path d="M-815600 -845227
L-815656 -845199
L-815769 -845199
L-815825 -845227
L-815853 -845255
L-815881 -845311
L-815881 845451
L-815853 845395
L-815825 845367
L-815769 845339
L-815656 845339
L-815600 845367
" />
<path d="M-815095 -845199
L-815095 845423
L-815123 845367
L-815179 845339
L-815291 845339
L-815347 845367
" />
<path d="M-815095 -845227
L-815151 -845199
L-815291 -845199
L-815347 -845227
L-815376 -845283
L-815376 -845339
L-815347 -845395
L-815291 -845423
L-815151 -845423
L-815095 -845451
" />
<path d="M-814561 -845199
L-814561 845142
" />
<path d="M-814561 -845227
L-814617 -845199
L-814729 -845199
L-814786 -845227
L-814814 -845255
L-814842 -845311
L-814842 845451
L-814814 845395
L-814786 845367
L-814729 845339
L-814617 845339
L-814561 845367
" />
<path d="M-814280 -845255
L-814252 -845227
L-814280 -845199
L-814308 -845227
L-814280 -845255
L-814280 -845199
" />
<path d="M-813999 -845199
L-813999 845142
" />
<path d="M-813943 -845423
L-813774 -845199
" />
<path d="M-813774 845339
L-813999 -845367
" />
<path d="M-813521 -845199
L-813521 845339
" />
<path d="M-813521 845142
L-813549 845171
L-813521 845199
L-813493 845171
L-813521 845142
L-813521 845199
" />
<path d="M-812987 -845227
L-813044 -845199
L-813156 -845199
L-813212 -845227
L-813240 -845255
L-813268 -845311
L-813268 845451
L-813240 845395
L-813212 845367
L-813156 845339
L-813044 845339
L-812987 845367
" />
<path d="M-812482 -845199
L-812482 845423
L-812510 845367
L-812566 845339
L-812678 845339
L-812735 845367
" />
<path d="M-812482 -845227
L-812538 -845199
L-812678 -845199
L-812735 -845227
L-812763 -845283
L-812763 -845339
L-812735 -845395
L-812678 -845423
L-812538 -845423
L-812482 -845451
" />
<path d="M-811948 -845199
L-811948 845142
" />
<path d="M-811948 -845227
L-812004 -845199
L-812116 -845199
L-812173 -845227
L-812201 -845255
L-812229 -845311
L-812229 845451
L-812201 845395
L-812173 845367
L-812116 845339
L-812004 845339
L-811948 845367
" />
<path d="M-811807 -845142
L-811358 -845142
" />
<path d="M-811217 845339
L-811217 -845002
" />
<path d="M-811217 845367
L-811161 845339
L-811049 845339
L-810993 845367
L-810965 845395
L-810936 845451
L-810936 -845311
L-810965 -845255
L-810993 -845227
L-811049 -845199
L-811161 -845199
L-811217 -845227
" />
<path d="M-810431 -845227
L-810487 -845199
L-810599 -845199
L-810656 -845227
L-810684 -845255
L-810712 -845311
L-810712 845451
L-810684 845395
L-810656 845367
L-810599 845339
L-810487 845339
L-810431 845367
" />
<path d="M-810178 -845199
L-810178 845142
" />
<path d="M-810178 845367
L-810122 845339
L-810009 845339
L-809953 845367
L-809925 845395
L-809897 845451
L-809897 -845311
L-809925 -845255
L-809953 -845227
L-810009 -845199
L-810122 -845199
L-810178 -845227
" />
<path d="M-845128 845423
L-845325 845423
" />
<path d="M-845325 -845199
L-845325 845142
L-845044 845142
" />
<path d="M-844819 -845199
L-844819 845339
" />
<path d="M-844819 845142
L-844847 845171
L-844819 845199
L-844791 845171
L-844819 845142
L-844819 845199
" />
<path d="M-844454 -845199
L-844510 -845227
L-844538 -845283
L-844538 845142
" />
<path d="M-844005 -845227
L-844061 -845199
L-844173 -845199
L-844229 -845227
L-844257 -845283
L-844257 845423
L-844229 845367
L-844173 845339
L-844061 845339
L-844005 845367
L-843976 845423
L-843976 -845451
L-844257 -845395
" />
<path d="M-843724 -845255
L-843696 -845227
L-843724 -845199
L-843752 -845227
L-843724 -845255
L-843724 -845199
" />
<path d="M-843724 845367
L-843696 845395
L-843724 845423
L-843752 845395
L-843724 845367
L-843724 845423
" />
</g>
<g style="fill:#000000; fill-opacity:0.0; 
stroke:#000000; stroke-width:118; stroke-opacity:1; 
stroke-linecap:round; stroke-linejoin:round;">
<path d="M-845409 845142
L-845072 845142
" />
<path d="M-845241 -845199
L-845241 845142
" />
<path d="M-844876 -845199
L-844876 845339
" />
<path d="M-844876 845142
L-844904 845171
L-844876 845199
L-844847 845171
L-844876 845142
L-844876 845199
" />
<path d="M-844679 845339
L-844454 845339
" />
<path d="M-844595 845142
L-844595 -845283
L-844566 -845227
L-844510 -845199
L-844454 -845199
" />
<path d="M-844173 -845199
L-844229 -845227
L-844257 -845283
L-844257 845142
" />
<path d="M-843724 -845227
L-843780 -845199
L-843892 -845199
L-843948 -845227
L-843976 -845283
L-843976 845423
L-843948 845367
L-843892 845339
L-843780 845339
L-843724 845367
L-843696 845423
L-843696 -845451
L-843976 -845395
" />
<path d="M-843443 -845255
L-843415 -845227
L-843443 -845199
L-843471 -845227
L-843443 -845255
L-843443 -845199
" />
<path d="M-843443 845367
L-843415 845395
L-843443 845423
L-843471 845395
L-843443 845367
L-843443 845423
" />
</g>
<g style="fill:#000000; fill-opacity:0.0; 
stroke:#000000; stroke-width:39.3701; stroke-opacity:1; 
stroke-linecap:round; stroke-linejoin:round;">
<path d="M-845325 -845199
L-845325 845142
" />
<path d="M-844791 -845199
L-844791 845142
" />
<path d="M-844791 -845227
L-844847 -845199
L-844960 -845199
L-845016 -845227
L-845044 -845255
L-845072 -845311
L-845072 845451
L-845044 845395
L-845016 845367
L-844960 845339
L-844847 845339
L-844791 845367
" />
<path d="M-844510 -845255
L-844482 -845227
L-844510 -845199
L-844538 -845227
L-844510 -845255
L-844510 -845199
" />
<path d="M-844510 845367
L-844482 845395
L-844510 845423
L-844538 845395
L-844510 845367
L-844510 845423
" />
<path d="M-843471 -845199
L-843808 -845199
" />
<path d="M-843639 -845199
L-843639 845142
L-843696 845227
L-843752 845283
L-843808 845311
" />
<path d="M-842796 845114
L-843302 -845058
" />
<path d="M-842291 -845199
L-842628 -845199
" />
<path d="M-842459 -845199
L-842459 845142
L-842516 845227
L-842572 845283
L-842628 845311
" />
<path d="M-845353 -845227
L-845269 -845199
L-845128 -845199
L-845072 -845227
L-845044 -845255
L-845016 -845311
L-845016 -845367
L-845044 -845423
L-845072 -845451
L-845128 845451
L-845241 845423
L-845297 845395
L-845325 845367
L-845353 845311
L-845353 845255
L-845325 845199
L-845297 845171
L-845241 845142
L-845100 845142
L-845016 845171
" />
<path d="M-844763 -845199
L-844763 845339
" />
<path d="M-844763 845142
L-844791 845171
L-844763 845199
L-844735 845171
L-844763 845142
L-844763 845199
" />
<path d="M-844538 845339
L-844229 845339
L-844538 -845199
L-844229 -845199
" />
<path d="M-843780 -845227
L-843836 -845199
L-843948 -845199
L-844005 -845227
L-844033 -845283
L-844033 845423
L-844005 845367
L-843948 845339
L-843836 845339
L-843780 845367
L-843752 845423
L-843752 -845451
L-844033 -845395
" />
<path d="M-843499 -845255
L-843471 -845227
L-843499 -845199
L-843527 -845227
L-843499 -845255
L-843499 -845199
" />
<path d="M-843499 845367
L-843471 845395
L-843499 845423
L-843527 845395
L-843499 845367
L-843499 845423
" />
<path d="M-842796 -845367
L-842516 -845367
" />
<path d="M-842853 -845199
L-842656 845142
L-842459 -845199
" />
<path d="M-842010 845339
L-842010 -845199
" />
<path d="M-842150 845114
L-842291 -845395
L-841926 -845395
" />
</g>
<g style="fill:#000000; fill-opacity:0.0; 
stroke:#000000; stroke-width:118; stroke-opacity:1; 
stroke-linecap:round; stroke-linejoin:round;">
<path d="M-844988 -845199
L-845185 845451
" />
<path d="M-845325 -845199
L-845325 845142
L-845100 845142
L-845044 845171
L-845016 845199
L-844988 845255
L-844988 845339
L-845016 845395
L-845044 845423
L-845100 845451
L-845325 845451
" />
<path d="M-844510 -845227
L-844566 -845199
L-844679 -845199
L-844735 -845227
L-844763 -845283
L-844763 845423
L-844735 845367
L-844679 845339
L-844566 845339
L-844510 845367
L-844482 845423
L-844482 -845451
L-844763 -845395
" />
<path d="M-844286 845339
L-844145 -845199
L-844005 845339
" />
<path d="M-843780 -845255
L-843752 -845227
L-843780 -845199
L-843808 -845227
L-843780 -845255
L-843780 -845199
" />
<path d="M-843780 845367
L-843752 845395
L-843780 845423
L-843808 845395
L-843780 845367
L-843780 845423
" />
</g>
<g style="fill:#000000; fill-opacity:0.0; 
stroke:#000000; stroke-width:39.3701; stroke-opacity:1; 
stroke-linecap:round; stroke-linejoin:round;">
<path d="M-845325 -845199
L-845325 845142
" />
<path d="M-844988 -845199
L-845241 845395
" />
<path d="M-844988 845142
L-845325 -845451
" />
<path d="M-844735 -845199
L-844735 845339
" />
<path d="M-844735 845142
L-844763 845171
L-844735 845199
L-844707 845171
L-844735 845142
L-844735 845199
" />
<path d="M-844117 -845255
L-844145 -845227
L-844229 -845199
L-844286 -845199
L-844370 -845227
L-844426 -845283
L-844454 -845339
L-844482 -845451
L-844482 845395
L-844454 845283
L-844426 845227
L-844370 845171
L-844286 845142
L-844229 845142
L-844145 845171
L-844117 845199
" />
<path d="M-843611 -845199
L-843611 845423
L-843639 845367
L-843696 845339
L-843808 845339
L-843864 845367
" />
<path d="M-843611 -845227
L-843667 -845199
L-843808 -845199
L-843864 -845227
L-843892 -845283
L-843892 -845339
L-843864 -845395
L-843808 -845423
L-843667 -845423
L-843611 -845451
" />
<path d="M-843077 -845199
L-843077 845142
" />
<path d="M-843077 -845227
L-843134 -845199
L-843246 -845199
L-843302 -845227
L-843330 -845255
L-843358 -845311
L-843358 845451
L-843330 845395
L-843302 845367
L-843246 845339
L-843134 845339
L-843077 845367
" />
<path d="M-842347 845423
L-842150 845423
" />
<path d="M-842066 -845199
L-842347 -845199
L-842347 845142
L-842066 845142
" />
<path d="M-841813 -845255
L-841785 -845227
L-841813 -845199
L-841841 -845227
L-841813 -845255
L-841813 -845199
" />
<path d="M-841532 -845199
L-841532 845142
L-841392 845142
L-841307 845171
L-841251 845227
L-841223 845283
L-841195 845395
L-841195 -845451
L-841223 -845339
L-841251 -845283
L-841307 -845227
L-841392 -845199
L-841532 -845199
" />
<path d="M-840942 -845255
L-840914 -845227
L-840942 -845199
L-840970 -845227
L-840942 -845255
L-840942 -845199
" />
<path d="M-840689 -845367
L-840408 -845367
" />
<path d="M-840746 -845199
L-840549 845142
L-840352 -845199
" />
<path d="M-840156 -845255
L-840127 -845227
L-840156 -845199
L-840184 -845227
L-840156 -845255
L-840156 -845199
" />
<path d="M-838976 845339
L-838976 -845002
" />
<path d="M-838976 845367
L-838919 845339
L-838807 845339
L-838751 845367
L-838723 845395
L-838695 845451
L-838695 -845311
L-838723 -845255
L-838751 -845227
L-838807 -845199
L-838919 -845199
L-838976 -845227
" />
<path d="M-838189 -845227
L-838245 -845199
L-838357 -845199
L-838414 -845227
L-838442 -845255
L-838470 -845311
L-838470 845451
L-838442 845395
L-838414 845367
L-838357 845339
L-838245 845339
L-838189 845367
" />
<path d="M-837936 -845199
L-837936 845142
" />
<path d="M-837936 845367
L-837880 845339
L-837767 845339
L-837711 845367
L-837683 845395
L-837655 845451
L-837655 -845311
L-837683 -845255
L-837711 -845227
L-837767 -845199
L-837880 -845199
L-837936 -845227
" />
<path d="M-837402 845339
L-837402 -845199
" />
<path d="M-837402 845395
L-837374 845367
L-837318 845339
L-837234 845339
L-837177 845367
L-837149 845423
L-837149 -845199
" />
<path d="M-836644 -845227
L-836700 -845199
L-836812 -845199
L-836868 -845227
L-836896 -845283
L-836896 845423
L-836868 845367
L-836812 845339
L-836700 845339
L-836644 845367
L-836616 845423
L-836616 -845451
L-836896 -845395
" />
<path d="M-836419 845339
L-836306 -845199
L-836194 845451
L-836082 -845199
L-835969 845339
" />
<path d="M-835126 -844974
L-835155 -845002
L-835211 -845086
L-835239 -845142
L-835267 -845227
L-835295 -845367
L-835295 845451
L-835267 845311
L-835239 845227
L-835211 845171
L-835155 845086
L-835126 845058
" />
<path d="M-834930 845199
L-834902 845171
L-834846 845142
L-834705 845142
L-834649 845171
L-834621 845199
L-834593 845255
L-834593 845311
L-834621 845395
L-834958 -845199
L-834593 -845199
" />
<path d="M-834227 845142
L-834171 845142
L-834115 845171
L-834087 845199
L-834059 845255
L-834031 845367
L-834031 -845423
L-834059 -845311
L-834087 -845255
L-834115 -845227
L-834171 -845199
L-834227 -845199
L-834284 -845227
L-834312 -845255
L-834340 -845311
L-834368 -845423
L-834368 845367
L-834340 845255
L-834312 845199
L-834284 845171
L-834227 845142
" />
<path d="M-833469 -845199
L-833806 -845199
" />
<path d="M-833637 -845199
L-833637 845142
L-833694 845227
L-833750 845283
L-833806 845311
" />
<path d="M-833272 845142
L-832907 845142
L-833104 845367
L-833019 845367
L-832963 845395
L-832935 845423
L-832907 -845451
L-832907 -845311
L-832935 -845255
L-832963 -845227
L-833019 -845199
L-833188 -845199
L-833244 -845227
L-833272 -845255
" />
<path d="M-832654 -845423
L-832205 -845423
" />
<path d="M-831924 -845199
L-831924 845339
" />
<path d="M-831924 845395
L-831896 845367
L-831839 845339
L-831755 845339
L-831699 845367
L-831671 845423
L-831671 -845199
" />
<path d="M-831671 845423
L-831643 845367
L-831586 845339
L-831502 845339
L-831446 845367
L-831418 845423
L-831418 -845199
" />
<path d="M-830884 -845199
L-830884 845423
L-830912 845367
L-830968 845339
L-831081 845339
L-831137 845367
" />
<path d="M-830884 -845227
L-830940 -845199
L-831081 -845199
L-831137 -845227
L-831165 -845283
L-831165 -845339
L-831137 -845395
L-831081 -845423
L-830940 -845423
L-830884 -845451
" />
<path d="M-830603 -845199
L-830603 845339
" />
<path d="M-830603 845451
L-830575 845395
L-830547 845367
L-830491 845339
L-830435 845339
" />
<path d="M-830238 -845423
L-829788 -845423
" />
<path d="M-829198 -845199
L-829536 -845199
" />
<path d="M-829367 -845199
L-829367 845142
L-829423 845227
L-829479 845283
L-829536 845311
" />
<path d="M-829002 845142
L-828636 845142
L-828833 845367
L-828749 845367
L-828693 845395
L-828665 845423
L-828636 -845451
L-828636 -845311
L-828665 -845255
L-828693 -845227
L-828749 -845199
L-828917 -845199
L-828974 -845227
L-829002 -845255
" />
<path d="M-828440 -844974
L-828412 -845002
L-828356 -845086
L-828327 -845142
L-828299 -845227
L-828271 -845367
L-828271 845451
L-828299 845311
L-828327 845227
L-828356 845171
L-828412 845086
L-828440 845058
" />
<path d="M-827990 -845423
L-827541 -845423
" />
<path d="M-827344 845339
L-827119 845339
" />
<path d="M-827260 845142
L-827260 -845283
L-827232 -845227
L-827176 -845199
L-827119 -845199
" />
<path d="M-826698 -845227
L-826754 -845199
L-826866 -845199
L-826923 -845227
L-826951 -845283
L-826951 845423
L-826923 845367
L-826866 845339
L-826754 845339
L-826698 845367
L-826670 845423
L-826670 -845451
L-826951 -845395
" />
<path d="M-826445 -845227
L-826389 -845199
L-826276 -845199
L-826220 -845227
L-826192 -845283
L-826192 -845311
L-826220 -845367
L-826276 -845395
L-826361 -845395
L-826417 -845423
L-826445 845451
L-826445 845423
L-826417 845367
L-826361 845339
L-826276 845339
L-826220 845367
" />
<path d="M-826024 845339
L-825799 845339
" />
<path d="M-825939 845142
L-825939 -845283
L-825911 -845227
L-825855 -845199
L-825799 -845199
" />
<path d="M-825602 -845199
L-825602 845339
" />
<path d="M-825602 845142
L-825630 845171
L-825602 845199
L-825574 845171
L-825602 845142
L-825602 845199
" />
<path d="M-825321 845339
L-825321 -845199
" />
<path d="M-825321 845395
L-825293 845367
L-825237 845339
L-825153 845339
L-825096 845367
L-825068 845423
L-825068 -845199
" />
<path d="M-824535 845339
L-824535 -845114
L-824563 -845058
L-824591 -845030
L-824647 -845002
L-824731 -845002
L-824787 -845030
" />
<path d="M-824535 -845227
L-824591 -845199
L-824703 -845199
L-824759 -845227
L-824787 -845255
L-824816 -845311
L-824816 845451
L-824787 845395
L-824759 845367
L-824703 845339
L-824591 845339
L-824535 845367
" />
<path d="M-845325 -845199
L-845325 845142
L-845185 845142
L-845100 845171
L-845044 845227
L-845016 845283
L-844988 845395
L-844988 -845451
L-845016 -845339
L-845044 -845283
L-845100 -845227
L-845185 -845199
L-845325 -845199
" />
<path d="M-844482 -845199
L-844482 845423
L-844510 845367
L-844566 845339
L-844679 845339
L-844735 845367
" />
<path d="M-844482 -845227
L-844538 -845199
L-844679 -845199
L-844735 -845227
L-844763 -845283
L-844763 -845339
L-844735 -845395
L-844679 -845423
L-844538 -845423
L-844482 -845451
" />
<path d="M-844286 845339
L-844061 845339
" />
<path d="M-844201 845142
L-844201 -845283
L-844173 -845227
L-844117 -845199
L-844061 -845199
" />
<path d="M-843639 -845227
L-843696 -845199
L-843808 -845199
L-843864 -845227
L-843892 -845283
L-843892 845423
L-843864 845367
L-843808 845339
L-843696 845339
L-843639 845367
L-843611 845423
L-843611 -845451
L-843892 -845395
" />
<path d="M-843358 -845255
L-843330 -845227
L-843358 -845199
L-843386 -845227
L-843358 -845255
L-843358 -845199
" />
<path d="M-843358 845367
L-843330 845395
L-843358 845423
L-843386 845395
L-843358 845367
L-843358 845423
" />
<path d="M-845466 -845466
L-845466 -845466
" />
<path d="M-845466 -845466
L-845466 -845466
" />
<path d="M-845466 -845466
L-845466 -845466
" />
</g>
<g style="fill:#000000; fill-opacity:0.0; 
stroke:#000000; stroke-width:98; stroke-opacity:1; 
stroke-linecap:round; stroke-linejoin:round;">
<path d="M57241 45868
L57241 46164
" />
<path d="M57044 45868
L57044 46164
" />
<path d="M56847 45868
L56847 46164
" />
<path d="M56650 45868
L56650 46164
" />
<path d="M56453 45868
L56453 46164
" />
<path d="M56256 45868
L56256 46164
" />
<path d="M56059 45868
L56059 46164
" />
<path d="M55518 46409
L55814 46409
" />
<path d="M55518 46606
L55814 46606
" />
<path d="M55518 46803
L55814 46803
" />
<path d="M55518 47000
L55814 47000
" />
<path d="M55518 47197
L55814 47197
" />
<path d="M55518 47394
L55814 47394
" />
<path d="M55518 47591
L55814 47591
" />
<path d="M56059 48132
L56059 47836
" />
<path d="M56256 48132
L56256 47836
" />
<path d="M56453 48132
L56453 47836
" />
<path d="M56650 48132
L56650 47836
" />
<path d="M56847 48132
L56847 47836
" />
<path d="M57044 48132
L57044 47836
" />
<path d="M57241 48132
L57241 47836
" />
<path d="M57782 47591
L57486 47591
" />
<path d="M57782 47394
L57486 47394
" />
<path d="M57782 47197
L57486 47197
" />
<path d="M57782 47000
L57486 47000
" />
<path d="M57782 46803
L57486 46803
" />
<path d="M57782 46606
L57486 46606
" />
<path d="M57782 46409
L57486 46409
" />
</g>
<g style="fill:#000000; fill-opacity:0.0; 
stroke:#000000; stroke-width:39.3701; stroke-opacity:1; 
stroke-linecap:round; stroke-linejoin:round;">
</g>
<g style="fill:#000000; fill-opacity:1.0; 
stroke:#000000; stroke-width:39.3701; stroke-opacity:1; 
stroke-linecap:round; stroke-linejoin:round;">
<polyline style="fill-rule:evenodd;"
points="57220,46429
57220,47570
56079,47570
56079,46429
57220,46429
" /> 
<circle cx="60350" cy="42950" r="350.315" /> 
<circle cx="60350" cy="43950" r="350.315" /> 
<circle cx="61350" cy="42950" r="350.315" /> 
<circle cx="61350" cy="43950" r="350.315" /> 
<circle cx="62350" cy="42950" r="350.315" /> 
<circle cx="62350" cy="43950" r="350.315" /> 
<circle cx="63350" cy="42950" r="350.315" /> 
<circle cx="63350" cy="43950" r="350.315" /> 
<polyline style="fill-rule:evenodd;"
points="54194,45844
54605,45844
54605,46055
54194,46055
54194,45844
" /> 
<polyline style="fill-rule:evenodd;"
points="54194,46444
54605,46444
54605,46655
54194,46655
54194,46444
" /> 
<polyline style="fill-rule:evenodd;"
points="60155,48155
59744,48155
59744,47944
60155,47944
60155,48155
" /> 
<polyline style="fill-rule:evenodd;"
points="60155,47555
59744,47555
59744,47344
60155,47344
60155,47555
" /> 
<polyline style="fill-rule:evenodd;"
points="60598,48232
60481,48232
60481,47879
60598,47879
60598,48232
" /> 
<polyline style="fill-rule:evenodd;"
points="60858,48232
60741,48232
60741,47879
60858,47879
60858,48232
" /> 
<polyline style="fill-rule:evenodd;"
points="61118,48232
61001,48232
61001,47879
61118,47879
61118,48232
" /> 
<polyline style="fill-rule:evenodd;"
points="61378,48232
61261,48232
61261,47879
61378,47879
61378,48232
" /> 
<polyline style="fill-rule:evenodd;"
points="61638,48232
61521,48232
61521,47879
61638,47879
61638,48232
" /> 
<polyline style="fill-rule:evenodd;"
points="61897,48232
61780,48232
61780,47879
61897,47879
61897,48232
" /> 
<polyline style="fill-rule:evenodd;"
points="62157,48232
62040,48232
62040,47879
62157,47879
62157,48232
" /> 
<polyline style="fill-rule:evenodd;"
points="62417,48234
62300,48234
62300,47881
62417,47881
62417,48234
" /> 
<polyline style="fill-rule:evenodd;"
points="62677,48232
62560,48232
62560,47879
62677,47879
62677,48232
" /> 
<polyline style="fill-rule:evenodd;"
points="62937,48232
62820,48232
62820,47879
62937,47879
62937,48232
" /> 
<polyline style="fill-rule:evenodd;"
points="62937,45933
62820,45933
62820,45580
62937,45580
62937,45933
" /> 
<polyline style="fill-rule:evenodd;"
points="62677,45933
62560,45933
62560,45580
62677,45580
62677,45933
" /> 
<polyline style="fill-rule:evenodd;"
points="62417,45930
62300,45930
62300,45577
62417,45577
62417,45930
" /> 
<polyline style="fill-rule:evenodd;"
points="62157,45933
62040,45933
62040,45580
62157,45580
62157,45933
" /> 
<polyline style="fill-rule:evenodd;"
points="61897,45933
61780,45933
61780,45580
61897,45580
61897,45933
" /> 
<polyline style="fill-rule:evenodd;"
points="61638,45933
61521,45933
61521,45580
61638,45580
61638,45933
" /> 
<polyline style="fill-rule:evenodd;"
points="61378,45933
61261,45933
61261,45580
61378,45580
61378,45933
" /> 
<polyline style="fill-rule:evenodd;"
points="61118,45933
61001,45933
61001,45580
61118,45580
61118,45933
" /> 
<polyline style="fill-rule:evenodd;"
points="60858,45933
60741,45933
60741,45580
60858,45580
60858,45933
" /> 
<polyline style="fill-rule:evenodd;"
points="60598,45933
60481,45933
60481,45580
60598,45580
60598,45933
" /> 
<polyline style="fill-rule:evenodd;"
points="60105,46855
59694,46855
59694,46644
60105,46644
60105,46855
" /> 
<polyline style="fill-rule:evenodd;"
points="60105,46255
59694,46255
59694,46044
60105,46044
60105,46255
" /> 
<polyline style="fill-rule:evenodd;"
points="58594,43705
58594,43294
58805,43294
58805,43705
58594,43705
" /> 
<polyline style="fill-rule:evenodd;"
points="59194,43705
59194,43294
59405,43294
59405,43705
59194,43705
" /> 
<polyline style="fill-rule:evenodd;"
points="59305,44805
58894,44805
58894,44594
59305,44594
59305,44805
" /> 
<polyline style="fill-rule:evenodd;"
points="59305,44205
58894,44205
58894,43994
59305,43994
59305,44205
" /> 
<circle cx="59050" cy="47570" r="350.315" /> 
<circle cx="59050" cy="46430" r="350.315" /> 
<polyline style="fill-rule:evenodd;"
points="53469,46969
54230,46969
54230,47530
53469,47530
53469,46969
" /> 
<polyline style="fill-rule:evenodd;"
points="53469,48269
54230,48269
54230,48830
53469,48830
53469,48269
" /> 
<polyline style="fill-rule:evenodd;"
points="55205,46655
54794,46655
54794,46444
55205,46444
55205,46655
" /> 
<polyline style="fill-rule:evenodd;"
points="55205,46055
54794,46055
54794,45844
55205,45844
55205,46055
" /> 
<polyline style="fill-rule:evenodd;"
points="54844,47244
55255,47244
55255,47455
54844,47455
54844,47244
" /> 
<polyline style="fill-rule:evenodd;"
points="54844,47844
55255,47844
55255,48055
54844,48055
54844,47844
" /> 
<polyline style="fill-rule:evenodd;"
points="57169,42855
57169,42344
57480,42344
57480,42855
57169,42855
" /> 
<polyline style="fill-rule:evenodd;"
points="57919,42855
57919,42344
58230,42344
58230,42855
57919,42855
" /> 
<polyline style="fill-rule:evenodd;"
points="58519,42955
58519,42444
58830,42444
58830,42955
58519,42955
" /> 
<polyline style="fill-rule:evenodd;"
points="59269,42955
59269,42444
59580,42444
59580,42955
59269,42955
" /> 
<polyline style="fill-rule:evenodd;"
points="58040,45280
57199,45280
57199,44839
58040,44839
58040,45280
" /> 
<polyline style="fill-rule:evenodd;"
points="58040,44370
57199,44370
57199,43929
58040,43929
58040,44370
" /> 
<polyline style="fill-rule:evenodd;"
points="58040,43460
57199,43460
57199,43019
58040,43019
58040,43460
" /> 
<polyline style="fill-rule:evenodd;"
points="55593,44838
54766,44838
54766,43461
55593,43461
55593,44838
" /> 
<polyline style="fill-rule:evenodd;"
points="58344,45455
58344,45044
58555,45044
58555,45455
58344,45455
" /> 
<polyline style="fill-rule:evenodd;"
points="58944,45455
58944,45044
59155,45044
59155,45455
58944,45455
" /> 
<polyline style="fill-rule:evenodd;"
points="58244,43994
58655,43994
58655,44205
58244,44205
58244,43994
" /> 
<polyline style="fill-rule:evenodd;"
points="58244,44594
58655,44594
58655,44805
58244,44805
58244,44594
" /> 
<circle cx="53650" cy="45050" r="350.315" /> 
<circle cx="53550" cy="44050" r="350.315" /> 
<circle cx="53650" cy="43050" r="350.315" /> 
<circle cx="53560" cy="46050" r="350.315" /> 
<polyline style="fill-rule:evenodd;"
points="56032,48812
56032,49087
55757,49087
55757,48812
56032,48812
" /> 
<polyline style="fill-rule:evenodd;"
points="55442,48812
55442,49087
55167,49087
55167,48812
55442,48812
" /> 
<polyline style="fill-rule:evenodd;"
points="57482,48812
57482,49087
57207,49087
57207,48812
57482,48812
" /> 
<polyline style="fill-rule:evenodd;"
points="56892,48812
56892,49087
56617,49087
56617,48812
56892,48812
" /> 
<polyline style="fill-rule:evenodd;"
points="62455,48544
62455,48955
62244,48955
62244,48544
62455,48544
" /> 
<polyline style="fill-rule:evenodd;"
points="61855,48544
61855,48955
61644,48955
61644,48544
61855,48544
" /> 
<polyline style="fill-rule:evenodd;"
points="63244,48144
63655,48144
63655,48355
63244,48355
63244,48144
" /> 
<polyline style="fill-rule:evenodd;"
points="63244,48744
63655,48744
63655,48955
63244,48955
63244,48744
" /> 
<polyline style="fill-rule:evenodd;"
points="59344,45455
59344,45044
59555,45044
59555,45455
59344,45455
" /> 
<polyline style="fill-rule:evenodd;"
points="59944,45455
59944,45044
60155,45044
60155,45455
59944,45455
" /> 
<polyline style="fill-rule:evenodd;"
points="52783,47070
53216,47070
53216,47503
52783,47503
52783,47070
" /> 
<polyline style="fill-rule:evenodd;"
points="52783,47896
53216,47896
53216,48329
52783,48329
52783,47896
" /> 
<polyline style="fill-rule:evenodd;"
points="52794,48594
53205,48594
53205,48805
52794,48805
52794,48594
" /> 
<polyline style="fill-rule:evenodd;"
points="52794,49194
53205,49194
53205,49405
52794,49405
52794,49194
" /> 
</g>
<g style="fill:#000000; fill-opacity:1.0; 
stroke:#000000; stroke-width:173.228; stroke-opacity:1; 
stroke-linecap:round; stroke-linejoin:round;">
<path d="M58450 44100
L58750 44400
" />
<path d="M58800 44400
L59100 44700
" />
<path d="M58750 44400
L58800 44400
" />
<path d="M58700 43500
L58700 43650
" />
<path d="M58450 43900
L58450 44100
" />
<path d="M58700 43650
L58450 43900
" />
<path d="M57620 44150
L58400 44150
" />
<path d="M58400 44150
L58450 44100
" />
</g>
<g style="fill:#000000; fill-opacity:1.0; 
stroke:#000000; stroke-width:100; stroke-opacity:1; 
stroke-linecap:round; stroke-linejoin:round;">
<path d="M58400 44150
L58450 44100
" />
</g>
<g style="fill:#000000; fill-opacity:1.0; 
stroke:#000000; stroke-width:129.921; stroke-opacity:1; 
stroke-linecap:round; stroke-linejoin:round;">
<path d="M57620 44300
L55180 44300
" />
<path d="M58850 47000
L58450 46600
" />
<path d="M59750 44850
L59600 44700
" />
<path d="M59750 45650
L59750 44850
" />
<path d="M59500 45900
L59750 45650
" />
<path d="M58700 45900
L59500 45900
" />
<path d="M58450 46150
L58700 45900
" />
<path d="M58450 46600
L58450 46150
" />
<path d="M58850 47000
L59650 47000
" />
<path d="M59650 47000
L59900 46750
" />
</g>
<g style="fill:#000000; fill-opacity:1.0; 
stroke:#000000; stroke-width:173.228; stroke-opacity:1; 
stroke-linecap:round; stroke-linejoin:round;">
<path d="M59100 44700
L59450 44700
" />
<path d="M59600 44700
L60350 43950
" />
</g>
<g style="fill:#000000; fill-opacity:1.0; 
stroke:#000000; stroke-width:129.921; stroke-opacity:1; 
stroke-linecap:round; stroke-linejoin:round;">
<path d="M58675 42700
L58675 43475
" />
<path d="M58675 43475
L58700 43500
" />
<path d="M59500 46950
L58900 46950
" />
<path d="M58900 46950
L58850 47000
" />
<path d="M59750 48250
L59950 48050
" />
<path d="M58850 47000
L58522 47327
" />
<path d="M58522 47327
L58522 47972
" />
<path d="M58522 47972
L58800 48250
" />
<path d="M58800 48250
L59750 48250
" />
</g>
<g style="fill:#000000; fill-opacity:1.0; 
stroke:#000000; stroke-width:100; stroke-opacity:1; 
stroke-linecap:round; stroke-linejoin:round;">
<path d="M59950 48050
L60534 48050
" />
<path d="M60534 48050
L60540 48056
" />
</g>
<g style="fill:#000000; fill-opacity:1.0; 
stroke:#000000; stroke-width:129.921; stroke-opacity:1; 
stroke-linecap:round; stroke-linejoin:round;">
<path d="M59450 44700
L59450 44650
" />
<path d="M59450 44650
L59450 44700
" />
</g>
<g style="fill:#000000; fill-opacity:1.0; 
stroke:#000000; stroke-width:173.228; stroke-opacity:1; 
stroke-linecap:round; stroke-linejoin:round;">
<path d="M59450 44700
L59600 44700
" />
</g>
<g style="fill:#000000; fill-opacity:1.0; 
stroke:#000000; stroke-width:100; stroke-opacity:1; 
stroke-linecap:round; stroke-linejoin:round;">
<path d="M53000 47287
L53813 47287
" />
<path d="M53813 47287
L53850 47250
" />
</g>
<g style="fill:#000000; fill-opacity:1.0; 
stroke:#000000; stroke-width:129.921; stroke-opacity:1; 
stroke-linecap:round; stroke-linejoin:round;">
<path d="M55150 42500
L57225 42500
" />
<path d="M57225 42500
L57325 42600
" />
</g>
<g style="fill:#000000; fill-opacity:1.0; 
stroke:#000000; stroke-width:173.228; stroke-opacity:1; 
stroke-linecap:round; stroke-linejoin:round;">
<path d="M57620 43240
L57540 43240
" />
<path d="M57540 43240
L57325 43025
" />
<path d="M57325 43025
L57325 42600
" />
<path d="M53850 47250
L53850 46340
" />
<path d="M53850 46340
L53560 46050
" />
</g>
<g style="fill:#000000; fill-opacity:1.0; 
stroke:#000000; stroke-width:129.921; stroke-opacity:1; 
stroke-linecap:round; stroke-linejoin:round;">
<path d="M53560 46050
L53500 46050
" />
<path d="M53350 42500
L55150 42500
" />
<path d="M53000 42850
L53350 42500
" />
<path d="M53000 45550
L53000 42850
" />
<path d="M53500 46050
L53000 45550
" />
</g>
<g style="fill:#000000; fill-opacity:1.0; 
stroke:#000000; stroke-width:173.228; stroke-opacity:1; 
stroke-linecap:round; stroke-linejoin:round;">
<path d="M53560 46050
L53550 46050
" />
<path d="M53550 46050
L53750 46250
" />
<path d="M53750 46250
L54700 46250
" />
<path d="M55666 46250
L55666 46184
" />
<path d="M54700 46250
L55666 46250
" />
</g>
<g style="fill:#000000; fill-opacity:1.0; 
stroke:#000000; stroke-width:100; stroke-opacity:1; 
stroke-linecap:round; stroke-linejoin:round;">
<path d="M56059 46016
L55834 46016
" />
<path d="M55834 46016
L55666 46184
" />
<path d="M55666 46184
L55666 46409
" />
<path d="M61850 43800
L61850 44150
" />
</g>
<g style="fill:#000000; fill-opacity:1.0; 
stroke:#000000; stroke-width:129.921; stroke-opacity:1; 
stroke-linecap:round; stroke-linejoin:round;">
<path d="M61060 45190
L61850 44400
" />
<path d="M61850 44400
L61850 44150
" />
<path d="M61060 45757
L61060 45190
" />
<path d="M61350 43000
L61850 43500
" />
<path d="M61850 43500
L61850 43800
" />
<path d="M61350 43000
L61350 42950
" />
<path d="M61350 43950
L61350 44350
" />
<path d="M60800 44900
L60800 45757
" />
<path d="M61350 44350
L60800 44900
" />
</g>
<g style="fill:#000000; fill-opacity:1.0; 
stroke:#000000; stroke-width:100; stroke-opacity:1; 
stroke-linecap:round; stroke-linejoin:round;">
<path d="M54750 45292
L54392 45292
" />
<path d="M54200 45100
L54200 44742
" />
<path d="M54392 45292
L54200 45100
" />
<path d="M53550 44050
L53550 44092
" />
<path d="M53550 44092
L54200 44742
" />
<path d="M56650 45597
L56650 46016
" />
<path d="M56345 45292
L56650 45597
" />
<path d="M54750 45292
L54750 45292
" />
<path d="M54750 45292
L56345 45292
" />
<path d="M56453 46016
L56453 45653
" />
<path d="M54071 45471
L53650 45050
" />
<path d="M56271 45471
L54071 45471
" />
<path d="M56453 45653
L56271 45471
" />
<path d="M62099 45757
L62099 45101
" />
<path d="M62850 43450
L63350 42950
" />
<path d="M62850 44350
L62850 43450
" />
<path d="M62099 45101
L62850 44350
" />
<path d="M61839 45757
L61839 44911
" />
<path d="M62350 44400
L62350 43950
" />
<path d="M61839 44911
L62350 44400
" />
<path d="M57634 46803
L58005 46803
" />
<path d="M61060 48390
L61060 48056
" />
<path d="M60878 48571
L61060 48390
" />
<path d="M58550 48571
L60878 48571
" />
<path d="M58328 48350
L58550 48571
" />
<path d="M58328 47125
L58328 48350
" />
<path d="M58005 46803
L58328 47125
" />
<path d="M57634 47000
L57950 47000
" />
<path d="M61320 48430
L61320 48056
" />
<path d="M61000 48750
L61320 48430
" />
<path d="M58400 48750
L61000 48750
" />
<path d="M58150 48500
L58400 48750
" />
<path d="M58150 47200
L58150 48500
" />
<path d="M57950 47000
L58150 47200
" />
<path d="M62350 42950
L62600 42950
" />
<path d="M62099 47351
L62099 48056
" />
<path d="M63850 45600
L62099 47351
" />
<path d="M63850 42700
L63850 45600
" />
<path d="M63600 42450
L63850 42700
" />
<path d="M63100 42450
L63600 42450
" />
<path d="M62600 42950
L63100 42450
" />
<path d="M59050 46430
L61020 46430
" />
<path d="M61320 46130
L61320 45757
" />
<path d="M61020 46430
L61320 46130
" />
<path d="M54400 45950
L55000 45950
" />
<path d="M55000 45950
L55450 45950
" />
<path d="M56256 45756
L56256 46016
" />
<path d="M56150 45650
L56256 45756
" />
<path d="M55750 45650
L56150 45650
" />
<path d="M55450 45950
L55750 45650
" />
<path d="M63350 45800
L63371 45800
" />
<path d="M63671 44271
L63350 43950
" />
<path d="M63671 45500
L63671 44271
" />
<path d="M63371 45800
L63671 45500
" />
<path d="M61580 48056
L61580 47570
" />
<path d="M61580 47570
L63350 45800
" />
<path d="M59950 47450
L61150 47450
" />
<path d="M61580 47020
L61580 45757
" />
<path d="M61150 47450
L61580 47020
" />
<path d="M59050 47570
L59170 47450
" />
<path d="M59170 47450
L59950 47450
" />
<path d="M53000 49300
L53800 49300
" />
<path d="M53850 49250
L53850 48550
" />
<path d="M53800 49300
L53850 49250
" />
<path d="M60350 42950
L60350 43050
" />
<path d="M60850 44450
L60050 45250
" />
<path d="M60850 43550
L60850 44450
" />
<path d="M60350 43050
L60850 43550
" />
<path d="M55050 47950
L55250 47950
" />
<path d="M57428 48421
L57750 48100
" />
<path d="M55721 48421
L57428 48421
" />
<path d="M55250 47950
L55721 48421
" />
<path d="M56650 47000
L56650 46550
" />
<path d="M56847 46353
L56847 46016
" />
<path d="M56650 46550
L56847 46353
" />
</g>
<g style="fill:#000000; fill-opacity:1.0; 
stroke:#000000; stroke-width:129.921; stroke-opacity:1; 
stroke-linecap:round; stroke-linejoin:round;">
<path d="M59450 45250
L59050 45250
" />
</g>
<g style="fill:#000000; fill-opacity:1.0; 
stroke:#000000; stroke-width:100; stroke-opacity:1; 
stroke-linecap:round; stroke-linejoin:round;">
<path d="M60540 45757
L60540 45740
" />
<path d="M60540 45740
L60050 45250
" />
<path d="M59900 46150
L60147 46150
" />
<path d="M60147 46150
L60540 45757
" />
</g>
<g style="fill:#000000; fill-opacity:1.0; 
stroke:#000000; stroke-width:173.228; stroke-opacity:1; 
stroke-linecap:round; stroke-linejoin:round;">
<path d="M54500 47150
L54500 47750
" />
<path d="M54450 47700
L54700 47950
" />
<path d="M55050 47950
L54700 47950
" />
<path d="M54400 46700
L54500 46800
" />
<path d="M54500 46800
L54500 47150
" />
<path d="M54400 46700
L54400 46550
" />
<path d="M54500 47750
L54450 47700
" />
<path d="M53850 48550
L54700 48550
" />
<path d="M55050 48200
L55050 47950
" />
<path d="M54700 48550
L55050 48200
" />
<path d="M54550 43025
L54925 43025
" />
<path d="M58250 42600
L58050 42400
" />
<path d="M58250 43650
L58250 42600
" />
<path d="M58200 43700
L58250 43650
" />
<path d="M56250 43700
L58200 43700
" />
<path d="M55800 43250
L56250 43700
" />
<path d="M55150 43250
L55800 43250
" />
<path d="M54925 43025
L55150 43250
" />
<path d="M59100 44100
L59300 43500
" />
<path d="M53650 43050
L53650 43250
" />
<path d="M56627 45077
L56847 45297
" />
<path d="M54577 45077
L56627 45077
" />
<path d="M54450 44950
L54577 45077
" />
<path d="M54450 44050
L54450 44950
" />
<path d="M53650 43250
L54450 44050
" />
</g>
<g style="fill:#000000; fill-opacity:1.0; 
stroke:#000000; stroke-width:129.921; stroke-opacity:1; 
stroke-linecap:round; stroke-linejoin:round;">
<path d="M59300 43500
L59300 42825
" />
<path d="M59300 42825
L59425 42700
" />
</g>
<g style="fill:#000000; fill-opacity:1.0; 
stroke:#000000; stroke-width:100; stroke-opacity:1; 
stroke-linecap:round; stroke-linejoin:round;">
<path d="M56847 45650
L59050 45650
" />
<path d="M59050 45650
L59050 45250
" />
<path d="M56847 46016
L56847 45650
" />
<path d="M56847 45650
L56847 45297
" />
<path d="M56847 45297
L56550 45000
" />
</g>
<g style="fill:#000000; fill-opacity:1.0; 
stroke:#000000; stroke-width:173.228; stroke-opacity:1; 
stroke-linecap:round; stroke-linejoin:round;">
<path d="M53650 43050
L54525 43050
" />
<path d="M54525 43050
L54550 43025
" />
<path d="M54550 43025
L54575 43000
" />
</g>
<g style="fill:#000000; fill-opacity:1.0; 
stroke:#000000; stroke-width:100; stroke-opacity:1; 
stroke-linecap:round; stroke-linejoin:round;">
<path d="M60533 45750
L60540 45757
" />
<path d="M58450 45250
L58450 44700
" />
<path d="M57620 45210
L58410 45210
" />
<path d="M58410 45210
L58450 45250
" />
<path d="M61750 48750
L61350 48750
" />
<path d="M56245 48600
L55895 48950
" />
<path d="M57800 48600
L56245 48600
" />
<path d="M58150 48950
L57800 48600
" />
<path d="M61150 48950
L58150 48950
" />
<path d="M61350 48750
L61150 48950
" />
<path d="M57345 48950
L57850 48950
" />
<path d="M63150 49150
L63450 48850
" />
<path d="M58050 49150
L63150 49150
" />
<path d="M57850 48950
L58050 49150
" />
<path d="M62619 48056
L62619 48481
" />
<path d="M62619 48481
L62350 48750
" />
<path d="M62359 48058
L62359 47641
" />
<path d="M63450 47750
L63450 48250
" />
<path d="M63150 47450
L63450 47750
" />
<path d="M62550 47450
L63150 47450
" />
<path d="M62359 47641
L62550 47450
" />
<path d="M53000 48113
L53000 48700
" />
<path d="M55050 47350
L55050 47250
" />
<path d="M55300 47000
L55666 47000
" />
<path d="M55050 47250
L55300 47000
" />
<path d="M55666 46606
L55056 46606
" />
<path d="M55056 46606
L55000 46550
" />
</g>
<g style="fill:#000000; fill-opacity:1.0; 
stroke:#000000; stroke-width:39.3701; stroke-opacity:1; 
stroke-linecap:round; stroke-linejoin:round;">
<polyline style="fill-rule:evenodd;"
points="54587,46612
54512,46612
54512,46675
54287,46675
54287,46612
54175,46612
54175,46524
54587,46524
54587,46612
" /> 
</g>
<g style="fill:#000000; fill-opacity:0.0; 
stroke:#000000; stroke-width:100; stroke-opacity:1; 
stroke-linecap:round; stroke-linejoin:round;">
<polyline fill="none;"
points="54587,46612
54512,46612
54512,46675
54287,46675
54287,46612
54175,46612
54175,46524
54587,46524
54587,46612
" /> 
</g>
<g style="fill:#000000; fill-opacity:1.0; 
stroke:#000000; stroke-width:39.3701; stroke-opacity:1; 
stroke-linecap:round; stroke-linejoin:round;">
<polyline style="fill-rule:evenodd;"
points="56977,47295
56945,47295
56945,47327
56354,47327
56354,47295
56322,47295
56322,46704
56354,46704
56354,46672
56945,46672
56945,46704
56977,46704
56977,47295
" /> 
</g>
<g style="fill:#000000; fill-opacity:0.0; 
stroke:#000000; stroke-width:100; stroke-opacity:1; 
stroke-linecap:round; stroke-linejoin:round;">
<polyline fill="none;"
points="56977,47295
56945,47295
56945,47327
56354,47327
56354,47295
56322,47295
56322,46704
56354,46704
56354,46672
56945,46672
56945,46704
56977,46704
56977,47295
" /> 
</g>
<g style="fill:#000000; fill-opacity:1.0; 
stroke:#000000; stroke-width:39.3701; stroke-opacity:1; 
stroke-linecap:round; stroke-linejoin:round;">
<polyline style="fill-rule:evenodd;"
points="57912,48394
57891,48380
57800,48362
57312,48362
57331,48358
57408,48306
57459,48230
57477,48139
57477,47828
57477,47827
57478,47827
57789,47827
57880,47809
57912,47788
57912,48394
" /> 
</g>
<g style="fill:#000000; fill-opacity:0.0; 
stroke:#000000; stroke-width:100; stroke-opacity:1; 
stroke-linecap:round; stroke-linejoin:round;">
<polyline fill="none;"
points="57912,48394
57891,48380
57800,48362
57312,48362
57331,48358
57408,48306
57459,48230
57477,48139
57477,47828
57477,47827
57478,47827
57789,47827
57880,47809
57912,47788
57912,48394
" /> 
</g>
<g style="fill:#000000; fill-opacity:1.0; 
stroke:#000000; stroke-width:39.3701; stroke-opacity:1; 
stroke-linecap:round; stroke-linejoin:round;">
<polyline style="fill-rule:evenodd;"
points="58729,45647
58700,45647
58700,45647
58603,45666
58521,45721
58521,45721
58271,45971
58216,46053
58197,46150
58197,46150
58197,46599
58197,46600
58211,46672
58173,46634
58096,46583
58018,46567
58008,46515
58003,46507
58008,46499
58026,46409
58008,46318
57956,46241
57880,46190
57789,46172
57478,46172
57477,46172
57477,46171
57477,45860
57459,45769
57408,45693
57331,45641
57241,45623
57167,45638
57167,45569
56882,45569
56869,45506
56869,45506
56849,45475
56818,45429
56513,45124
56436,45072
56345,45054
54750,45054
54491,45054
54437,45001
54437,44742
54419,44651
54419,44651
54368,44574
54280,44487
54062,44269
54107,44161
54107,43939
54023,43734
53883,43594
53900,43561
53650,43311
53548,43412
53287,43151
53388,43050
53287,42948
53483,42752
53614,42752
53650,42788
53685,42752
53816,42752
54012,42948
53911,43050
54161,43300
54247,43255
54280,43011
54257,42894
54322,42830
54245,42752
55150,42752
56962,42752
56962,42912
56990,42981
56992,42982
56992,43037
56992,43517
57020,43586
57073,43639
57142,43667
57217,43667
58097,43667
58166,43639
58219,43586
58247,43517
58247,43442
58247,43125
58299,43125
58384,43125
58393,43134
58422,43146
58422,43162
58415,43168
58387,43237
58387,43312
58387,43574
58255,43705
58202,43786
58166,43750
58097,43722
58022,43722
57142,43722
57073,43750
57020,43803
56992,43872
56992,43947
56992,44047
55800,44047
55800,43404
55772,43335
55719,43282
55650,43253
55575,43253
54709,43253
54640,43282
54587,43335
54559,43404
54559,43478
54559,44895
54587,44964
54640,45017
54709,45046
54784,45046
55650,45046
55719,45017
55772,44964
55800,44895
55800,44821
55800,44552
57082,44552
57142,44577
57217,44577
58037,44577
58037,44612
58037,44632
58022,44632
57142,44632
57073,44660
57020,44713
56992,44782
56992,44857
56992,45337
57020,45406
57073,45459
57142,45487
57217,45487
58097,45487
58137,45471
58137,45512
58165,45581
58218,45634
58287,45662
58362,45662
58612,45662
58681,45634
58708,45606
58713,45616
58729,45633
58729,45647
" /> 
</g>
<g style="fill:#000000; fill-opacity:0.0; 
stroke:#000000; stroke-width:100; stroke-opacity:1; 
stroke-linecap:round; stroke-linejoin:round;">
<polyline fill="none;"
points="58729,45647
58700,45647
58700,45647
58603,45666
58521,45721
58521,45721
58271,45971
58216,46053
58197,46150
58197,46150
58197,46599
58197,46600
58211,46672
58173,46634
58096,46583
58018,46567
58008,46515
58003,46507
58008,46499
58026,46409
58008,46318
57956,46241
57880,46190
57789,46172
57478,46172
57477,46172
57477,46171
57477,45860
57459,45769
57408,45693
57331,45641
57241,45623
57167,45638
57167,45569
56882,45569
56869,45506
56869,45506
56849,45475
56818,45429
56513,45124
56436,45072
56345,45054
54750,45054
54491,45054
54437,45001
54437,44742
54419,44651
54419,44651
54368,44574
54280,44487
54062,44269
54107,44161
54107,43939
54023,43734
53883,43594
53900,43561
53650,43311
53548,43412
53287,43151
53388,43050
53287,42948
53483,42752
53614,42752
53650,42788
53685,42752
53816,42752
54012,42948
53911,43050
54161,43300
54247,43255
54280,43011
54257,42894
54322,42830
54245,42752
55150,42752
56962,42752
56962,42912
56990,42981
56992,42982
56992,43037
56992,43517
57020,43586
57073,43639
57142,43667
57217,43667
58097,43667
58166,43639
58219,43586
58247,43517
58247,43442
58247,43125
58299,43125
58384,43125
58393,43134
58422,43146
58422,43162
58415,43168
58387,43237
58387,43312
58387,43574
58255,43705
58202,43786
58166,43750
58097,43722
58022,43722
57142,43722
57073,43750
57020,43803
56992,43872
56992,43947
56992,44047
55800,44047
55800,43404
55772,43335
55719,43282
55650,43253
55575,43253
54709,43253
54640,43282
54587,43335
54559,43404
54559,43478
54559,44895
54587,44964
54640,45017
54709,45046
54784,45046
55650,45046
55719,45017
55772,44964
55800,44895
55800,44821
55800,44552
57082,44552
57142,44577
57217,44577
58037,44577
58037,44612
58037,44632
58022,44632
57142,44632
57073,44660
57020,44713
56992,44782
56992,44857
56992,45337
57020,45406
57073,45459
57142,45487
57217,45487
58097,45487
58137,45471
58137,45512
58165,45581
58218,45634
58287,45662
58362,45662
58612,45662
58681,45634
58708,45606
58713,45616
58729,45633
58729,45647
" /> 
</g>
<g style="fill:#000000; fill-opacity:1.0; 
stroke:#000000; stroke-width:39.3701; stroke-opacity:1; 
stroke-linecap:round; stroke-linejoin:round;">
<polyline style="fill-rule:evenodd;"
points="59497,45475
59425,45475
59425,45425
59425,45425
59387,45387
59387,45362
59362,45362
59137,45362
59112,45362
59112,45387
59075,45425
59075,45425
59075,45475
58987,45475
58987,45362
58925,45362
58925,45137
58987,45137
58987,45025
59075,45025
59075,45074
59075,45075
59112,45112
59112,45137
59137,45137
59362,45137
59387,45137
59387,45112
59425,45075
59425,45074
59425,45025
59497,45025
59497,45475
" /> 
</g>
<g style="fill:#000000; fill-opacity:0.0; 
stroke:#000000; stroke-width:100; stroke-opacity:1; 
stroke-linecap:round; stroke-linejoin:round;">
<polyline fill="none;"
points="59497,45475
59425,45475
59425,45425
59425,45425
59387,45387
59387,45362
59362,45362
59137,45362
59112,45362
59112,45387
59075,45425
59075,45425
59075,45475
58987,45475
58987,45362
58925,45362
58925,45137
58987,45137
58987,45025
59075,45025
59075,45074
59075,45075
59112,45112
59112,45137
59137,45137
59362,45137
59387,45137
59387,45112
59425,45075
59425,45074
59425,45025
59497,45025
59497,45475
" /> 
</g>
<g style="fill:#000000; fill-opacity:1.0; 
stroke:#000000; stroke-width:39.3701; stroke-opacity:1; 
stroke-linecap:round; stroke-linejoin:round;">
<polyline style="fill-rule:evenodd;"
points="60125,46192
59675,46192
59675,46087
59787,46087
59787,46025
60012,46025
60012,46087
60125,46087
60125,46192
" /> 
</g>
<g style="fill:#000000; fill-opacity:0.0; 
stroke:#000000; stroke-width:100; stroke-opacity:1; 
stroke-linecap:round; stroke-linejoin:round;">
<polyline fill="none;"
points="60125,46192
59675,46192
59675,46087
59787,46087
59787,46025
60012,46025
60012,46087
60125,46087
60125,46192
" /> 
</g>
<g style="fill:#000000; fill-opacity:1.0; 
stroke:#000000; stroke-width:39.3701; stroke-opacity:1; 
stroke-linecap:round; stroke-linejoin:round;">
<polyline style="fill-rule:evenodd;"
points="60976,44365
60621,44721
60566,44803
60547,44900
60547,44900
60547,45490
60533,45523
60533,45597
60533,45953
60500,45953
60500,45855
60500,45658
60500,45373
60438,45310
60425,45310
60425,45075
60425,45074
60425,44975
60386,44883
60316,44813
60224,44775
60175,44775
60112,44837
60112,45137
60362,45137
60425,45075
60425,45310
60411,45310
60319,45348
60305,45362
60112,45362
60112,45662
60175,45725
60224,45725
60316,45686
60344,45658
60500,45658
60500,45855
60375,45855
60375,45829
60283,45829
60266,45813
60220,45793
60220,45775
60174,45775
60075,45775
60075,45775
59964,45775
59983,45746
60002,45650
60002,45650
60002,45649
60002,44850
59983,44753
59964,44724
60197,44490
60238,44507
60460,44507
60665,44423
60822,44266
60849,44200
60876,44265
60976,44365
" /> 
</g>
<g style="fill:#000000; fill-opacity:0.0; 
stroke:#000000; stroke-width:100; stroke-opacity:1; 
stroke-linecap:round; stroke-linejoin:round;">
<polyline fill="none;"
points="60976,44365
60621,44721
60566,44803
60547,44900
60547,44900
60547,45490
60533,45523
60533,45597
60533,45953
60500,45953
60500,45855
60500,45658
60500,45373
60438,45310
60425,45310
60425,45075
60425,45074
60425,44975
60386,44883
60316,44813
60224,44775
60175,44775
60112,44837
60112,45137
60362,45137
60425,45075
60425,45310
60411,45310
60319,45348
60305,45362
60112,45362
60112,45662
60175,45725
60224,45725
60316,45686
60344,45658
60500,45658
60500,45855
60375,45855
60375,45829
60283,45829
60266,45813
60220,45793
60220,45775
60174,45775
60075,45775
60075,45775
59964,45775
59983,45746
60002,45650
60002,45650
60002,45649
60002,44850
59983,44753
59964,44724
60197,44490
60238,44507
60460,44507
60665,44423
60822,44266
60849,44200
60876,44265
60976,44365
" /> 
</g>
<g style="fill:#000000; fill-opacity:1.0; 
stroke:#000000; stroke-width:39.3701; stroke-opacity:1; 
stroke-linecap:round; stroke-linejoin:round;">
<polyline style="fill-rule:evenodd;"
points="64050,49700
56676,49700
56676,49294
56676,49028
56410,49028
56348,49091
56348,49156
56386,49248
56456,49318
56548,49357
56614,49357
56676,49294
56676,49700
55226,49700
55226,49294
55226,49028
55226,48871
55226,48605
55164,48543
55098,48543
55006,48581
54937,48649
54937,48262
54937,48012
54637,48012
54575,48075
54575,48124
54613,48216
54683,48286
54775,48325
54874,48325
54875,48325
54937,48262
54937,48649
54936,48651
54898,48743
54898,48809
54960,48871
55226,48871
55226,49028
54960,49028
54898,49091
54898,49156
54936,49248
55006,49318
55098,49357
55164,49357
55226,49294
55226,49700
54500,49700
54500,48899
54500,48762
54500,48337
54500,48200
54461,48108
54391,48038
54299,48000
54200,48000
54112,48000
54050,48062
54050,48400
54437,48400
54500,48337
54500,48762
54437,48700
54050,48700
54050,49037
54112,49100
54200,49100
54299,49100
54391,49061
54461,48991
54500,48899
54500,49700
53475,49700
53475,49474
53475,49425
53412,49362
53112,49362
53112,49612
53175,49675
53175,49675
53274,49675
53366,49636
53436,49566
53475,49474
53475,49700
52887,49700
52887,49612
52887,49362
52587,49362
52525,49425
52525,49474
52563,49566
52633,49636
52725,49675
52824,49675
52825,49675
52887,49612
52887,49700
52300,49700
52300,41950
64050,41950
64050,42579
64049,42578
64018,42531
63768,42281
63691,42230
63600,42212
63100,42212
63008,42230
62931,42281
62701,42512
62666,42477
62461,42392
62239,42392
62034,42476
61877,42633
61850,42699
61823,42634
61666,42477
61461,42392
61239,42392
61034,42476
60877,42633
60841,42720
60611,42950
60841,43179
60876,43265
61033,43422
61099,43449
61034,43476
60877,43633
60850,43699
60823,43634
60666,43477
60600,43449
60600,42438
60555,42352
60311,42319
60144,42352
60099,42438
60350,42688
60600,42438
60600,43449
60579,43441
60350,43211
60120,43441
60088,43454
60034,43476
59877,43633
59792,43838
59792,44060
59809,44102
59503,44407
59496,44406
59536,44366
59575,44274
59575,44225
59512,44162
59212,44162
59212,44225
59013,44225
58994,44205
58987,44201
58987,44162
58928,44162
58905,44146
58887,44143
58879,44141
58875,44136
58875,44037
58987,44037
58987,43975
59125,43975
59175,43975
59212,43975
59212,44037
59512,44037
59575,43975
59620,43975
59620,43883
59636,43866
59675,43774
59675,43675
59675,43675
59612,43612
59362,43612
59362,43725
59275,43725
59275,43725
59237,43725
59237,43612
59175,43612
59175,43387
59237,43387
59237,43275
59362,43275
59362,43387
59612,43387
59675,43325
59675,43324
59675,43225
59674,43225
59745,43225
59745,43183
59765,43162
59838,43200
60088,42950
59850,42711
59850,42500
59850,42474
59850,42375
59811,42283
59741,42213
59649,42175
59575,42175
59512,42237
59512,42562
59787,42562
59850,42500
59850,42711
59838,42699
59752,42744
59739,42837
59512,42837
59512,42975
59337,42975
59337,42837
59250,42837
59250,42562
59337,42562
59337,42237
59275,42175
59200,42175
59108,42213
59038,42283
59016,42335
59009,42318
58956,42265
58887,42237
58812,42237
58484,42237
58461,42183
58391,42113
58299,42075
58225,42075
58162,42137
58162,42462
58250,42462
58250,42737
58162,42737
58162,42839
58097,42812
58022,42812
57987,42812
57987,42737
57900,42737
57900,42462
57987,42462
57987,42137
57925,42075
57850,42075
57758,42113
57688,42183
57666,42235
57659,42218
57606,42165
57537,42137
57462,42137
57112,42137
57043,42165
56990,42218
56978,42247
55150,42247
53350,42247
53350,42247
53253,42266
53171,42321
53171,42321
52821,42671
52766,42753
52747,42850
52747,42850
52747,45549
52747,45550
52766,45646
52821,45728
53010,45918
53002,45938
53002,46160
53086,46365
53243,46522
53448,46607
53512,46607
53512,46607
53559,46607
53575,46607
53575,46762
53412,46762
53343,46790
53290,46843
53281,46866
53273,46863
53198,46863
52726,46863
52657,46891
52604,46944
52576,47013
52576,47088
52576,47560
52604,47629
52657,47682
52700,47700
52657,47717
52604,47770
52576,47839
52576,47914
52576,48386
52604,48455
52616,48467
52615,48468
52587,48537
52587,48612
52587,48862
52615,48931
52643,48958
52633,48963
52563,49033
52525,49125
52525,49175
52587,49237
52887,49237
52887,49175
53112,49175
53112,49237
53412,49237
53475,49175
53475,49125
53464,49100
53499,49100
53587,49100
53650,49037
53650,48700
53522,48700
53522,48400
53650,48400
53650,48062
53587,48000
53499,48000
53423,48000
53423,47839
53395,47770
53342,47717
53299,47700
53324,47689
53343,47709
53412,47737
53487,47737
54287,47737
54356,47709
54409,47656
54437,47587
54437,47512
54437,46925
54575,46925
54575,46925
54674,46925
54720,46925
54720,46906
54766,46886
54783,46870
54875,46870
54875,46862
55100,46862
54926,47037
54787,47037
54718,47065
54665,47118
54637,47187
54637,47262
54637,47512
54665,47581
54693,47608
54683,47613
54613,47683
54575,47775
54575,47825
54637,47887
54937,47887
54937,47825
55162,47825
55162,47887
55462,47887
55522,47827
55821,47827
55822,47827
55822,47828
55822,48139
55840,48230
55891,48306
55968,48358
56059,48376
56149,48358
56157,48353
56165,48358
56214,48368
56153,48380
56123,48400
56076,48431
55903,48605
55700,48605
55649,48626
55603,48581
55525,48548
55525,48124
55525,48075
55462,48012
55162,48012
55162,48262
55225,48325
55225,48325
55324,48325
55416,48286
55486,48216
55525,48124
55525,48548
55511,48543
55446,48543
55383,48605
55383,48871
55462,48871
55462,49028
55383,49028
55383,49294
55446,49357
55511,49357
55603,49318
55649,49273
55700,49294
55775,49294
56089,49294
56158,49266
56211,49213
56239,49144
56239,49069
56239,48941
56343,48837
56348,48837
56376,48837
56410,48871
56676,48871
56676,48837
56833,48837
56833,48871
56912,48871
56912,49028
56833,49028
56833,49294
56896,49357
56961,49357
57053,49318
57099,49273
57150,49294
57225,49294
57539,49294
57608,49266
57661,49213
57671,49187
57751,49187
57881,49318
57881,49318
57958,49369
58050,49387
63150,49387
63150,49387
63241,49369
63241,49369
63318,49318
63473,49162
63712,49162
63781,49134
63834,49081
63862,49012
63862,48937
63862,48687
63834,48618
63781,48565
63743,48550
63781,48534
63834,48481
63862,48412
63862,48337
63862,48087
63834,48018
63781,47965
63712,47937
63687,47937
63687,47750
63669,47659
63669,47658
63649,47628
63618,47581
63318,47281
63241,47230
63150,47212
62574,47212
64018,45768
64018,45768
64050,45720
64050,49700
" /> 
</g>
<g style="fill:#000000; fill-opacity:0.0; 
stroke:#000000; stroke-width:100; stroke-opacity:1; 
stroke-linecap:round; stroke-linejoin:round;">
<polyline fill="none;"
points="64050,49700
56676,49700
56676,49294
56676,49028
56410,49028
56348,49091
56348,49156
56386,49248
56456,49318
56548,49357
56614,49357
56676,49294
56676,49700
55226,49700
55226,49294
55226,49028
55226,48871
55226,48605
55164,48543
55098,48543
55006,48581
54937,48649
54937,48262
54937,48012
54637,48012
54575,48075
54575,48124
54613,48216
54683,48286
54775,48325
54874,48325
54875,48325
54937,48262
54937,48649
54936,48651
54898,48743
54898,48809
54960,48871
55226,48871
55226,49028
54960,49028
54898,49091
54898,49156
54936,49248
55006,49318
55098,49357
55164,49357
55226,49294
55226,49700
54500,49700
54500,48899
54500,48762
54500,48337
54500,48200
54461,48108
54391,48038
54299,48000
54200,48000
54112,48000
54050,48062
54050,48400
54437,48400
54500,48337
54500,48762
54437,48700
54050,48700
54050,49037
54112,49100
54200,49100
54299,49100
54391,49061
54461,48991
54500,48899
54500,49700
53475,49700
53475,49474
53475,49425
53412,49362
53112,49362
53112,49612
53175,49675
53175,49675
53274,49675
53366,49636
53436,49566
53475,49474
53475,49700
52887,49700
52887,49612
52887,49362
52587,49362
52525,49425
52525,49474
52563,49566
52633,49636
52725,49675
52824,49675
52825,49675
52887,49612
52887,49700
52300,49700
52300,41950
64050,41950
64050,42579
64049,42578
64018,42531
63768,42281
63691,42230
63600,42212
63100,42212
63008,42230
62931,42281
62701,42512
62666,42477
62461,42392
62239,42392
62034,42476
61877,42633
61850,42699
61823,42634
61666,42477
61461,42392
61239,42392
61034,42476
60877,42633
60841,42720
60611,42950
60841,43179
60876,43265
61033,43422
61099,43449
61034,43476
60877,43633
60850,43699
60823,43634
60666,43477
60600,43449
60600,42438
60555,42352
60311,42319
60144,42352
60099,42438
60350,42688
60600,42438
60600,43449
60579,43441
60350,43211
60120,43441
60088,43454
60034,43476
59877,43633
59792,43838
59792,44060
59809,44102
59503,44407
59496,44406
59536,44366
59575,44274
59575,44225
59512,44162
59212,44162
59212,44225
59013,44225
58994,44205
58987,44201
58987,44162
58928,44162
58905,44146
58887,44143
58879,44141
58875,44136
58875,44037
58987,44037
58987,43975
59125,43975
59175,43975
59212,43975
59212,44037
59512,44037
59575,43975
59620,43975
59620,43883
59636,43866
59675,43774
59675,43675
59675,43675
59612,43612
59362,43612
59362,43725
59275,43725
59275,43725
59237,43725
59237,43612
59175,43612
59175,43387
59237,43387
59237,43275
59362,43275
59362,43387
59612,43387
59675,43325
59675,43324
59675,43225
59674,43225
59745,43225
59745,43183
59765,43162
59838,43200
60088,42950
59850,42711
59850,42500
59850,42474
59850,42375
59811,42283
59741,42213
59649,42175
59575,42175
59512,42237
59512,42562
59787,42562
59850,42500
59850,42711
59838,42699
59752,42744
59739,42837
59512,42837
59512,42975
59337,42975
59337,42837
59250,42837
59250,42562
59337,42562
59337,42237
59275,42175
59200,42175
59108,42213
59038,42283
59016,42335
59009,42318
58956,42265
58887,42237
58812,42237
58484,42237
58461,42183
58391,42113
58299,42075
58225,42075
58162,42137
58162,42462
58250,42462
58250,42737
58162,42737
58162,42839
58097,42812
58022,42812
57987,42812
57987,42737
57900,42737
57900,42462
57987,42462
57987,42137
57925,42075
57850,42075
57758,42113
57688,42183
57666,42235
57659,42218
57606,42165
57537,42137
57462,42137
57112,42137
57043,42165
56990,42218
56978,42247
55150,42247
53350,42247
53350,42247
53253,42266
53171,42321
53171,42321
52821,42671
52766,42753
52747,42850
52747,42850
52747,45549
52747,45550
52766,45646
52821,45728
53010,45918
53002,45938
53002,46160
53086,46365
53243,46522
53448,46607
53512,46607
53512,46607
53559,46607
53575,46607
53575,46762
53412,46762
53343,46790
53290,46843
53281,46866
53273,46863
53198,46863
52726,46863
52657,46891
52604,46944
52576,47013
52576,47088
52576,47560
52604,47629
52657,47682
52700,47700
52657,47717
52604,47770
52576,47839
52576,47914
52576,48386
52604,48455
52616,48467
52615,48468
52587,48537
52587,48612
52587,48862
52615,48931
52643,48958
52633,48963
52563,49033
52525,49125
52525,49175
52587,49237
52887,49237
52887,49175
53112,49175
53112,49237
53412,49237
53475,49175
53475,49125
53464,49100
53499,49100
53587,49100
53650,49037
53650,48700
53522,48700
53522,48400
53650,48400
53650,48062
53587,48000
53499,48000
53423,48000
53423,47839
53395,47770
53342,47717
53299,47700
53324,47689
53343,47709
53412,47737
53487,47737
54287,47737
54356,47709
54409,47656
54437,47587
54437,47512
54437,46925
54575,46925
54575,46925
54674,46925
54720,46925
54720,46906
54766,46886
54783,46870
54875,46870
54875,46862
55100,46862
54926,47037
54787,47037
54718,47065
54665,47118
54637,47187
54637,47262
54637,47512
54665,47581
54693,47608
54683,47613
54613,47683
54575,47775
54575,47825
54637,47887
54937,47887
54937,47825
55162,47825
55162,47887
55462,47887
55522,47827
55821,47827
55822,47827
55822,47828
55822,48139
55840,48230
55891,48306
55968,48358
56059,48376
56149,48358
56157,48353
56165,48358
56214,48368
56153,48380
56123,48400
56076,48431
55903,48605
55700,48605
55649,48626
55603,48581
55525,48548
55525,48124
55525,48075
55462,48012
55162,48012
55162,48262
55225,48325
55225,48325
55324,48325
55416,48286
55486,48216
55525,48124
55525,48548
55511,48543
55446,48543
55383,48605
55383,48871
55462,48871
55462,49028
55383,49028
55383,49294
55446,49357
55511,49357
55603,49318
55649,49273
55700,49294
55775,49294
56089,49294
56158,49266
56211,49213
56239,49144
56239,49069
56239,48941
56343,48837
56348,48837
56376,48837
56410,48871
56676,48871
56676,48837
56833,48837
56833,48871
56912,48871
56912,49028
56833,49028
56833,49294
56896,49357
56961,49357
57053,49318
57099,49273
57150,49294
57225,49294
57539,49294
57608,49266
57661,49213
57671,49187
57751,49187
57881,49318
57881,49318
57958,49369
58050,49387
63150,49387
63150,49387
63241,49369
63241,49369
63318,49318
63473,49162
63712,49162
63781,49134
63834,49081
63862,49012
63862,48937
63862,48687
63834,48618
63781,48565
63743,48550
63781,48534
63834,48481
63862,48412
63862,48337
63862,48087
63834,48018
63781,47965
63712,47937
63687,47937
63687,47750
63669,47659
63669,47658
63649,47628
63618,47581
63318,47281
63241,47230
63150,47212
62574,47212
64018,45768
64018,45768
64050,45720
64050,49700
" /> 
</g>
<g style="fill:#FFFFFF; fill-opacity:0.0; 
stroke:#FFFFFF; stroke-width:39.3701; stroke-opacity:1; 
stroke-linecap:round; stroke-linejoin:round;">
</g>
<g style="fill:#FFFFFF; fill-opacity:1.0; 
stroke:#FFFFFF; stroke-width:39.3701; stroke-opacity:1; 
stroke-linecap:round; stroke-linejoin:round;">
<circle cx="60350" cy="42950" r="180.315" /> 
<circle cx="60350" cy="43950" r="180.315" /> 
<circle cx="61350" cy="42950" r="180.315" /> 
<circle cx="61350" cy="43950" r="180.315" /> 
<circle cx="62350" cy="42950" r="180.315" /> 
<circle cx="62350" cy="43950" r="180.315" /> 
<circle cx="63350" cy="42950" r="180.315" /> 
<circle cx="63350" cy="43950" r="180.315" /> 
<circle cx="59050" cy="47570" r="180.315" /> 
<circle cx="59050" cy="46430" r="180.315" /> 
<circle cx="53550" cy="46050" r="180.315" /> 
<circle cx="53650" cy="45050" r="180.315" /> 
<circle cx="53550" cy="44050" r="180.315" /> 
<circle cx="53650" cy="43050" r="180.315" /> 
<circle cx="53560" cy="46050" r="180.315" /> 
</g> 
</svg>
