<?xml version="1.0" standalone="no"?>
 <!DOCTYPE svg PUBLIC "-//W3C//DTD SVG 1.1//EN" 
 "http://www.w3.org/Graphics/SVG/1.1/DTD/svg11.dtd"> 
<svg xmlns="http://www.w3.org/2000/svg" version="1.1" 
    width="29.7002cm" height="21.0007cm" viewBox="0 0 116930 82680 ">
<title>SVG Picture created as jmotes_dongle_kicad-F_Mask.svg date 2014/03/31 19:19:23 </title>
  <desc>Picture generated by PCBNEW </desc>
<g style="fill:#000000; fill-opacity:1;stroke:#000000; stroke-opacity:1;
stroke-linecap:round; stroke-linejoin:round; "
 transform="translate(0 0) scale(1 1)">
</g>
<g style="fill:#000000; fill-opacity:0.0; 
stroke:#000000; stroke-width:39.3701; stroke-opacity:1; 
stroke-linecap:round; stroke-linejoin:round;">
<rect x="-845466" y="-845466" width="0" height="0" rx="0" />
<rect x="-845466" y="-845466" width="0" height="0" rx="0" />
<path d="M-845466 -845466
L-845466 -845466
" />
<path d="M-845466 -845466
L-845466 -845466
" />
<path d="M-845466 -845466
L-845466 -845466
" />
<path d="M-845466 -845466
L-845466 -845466
" />
<path d="M-845466 -845466
L-845466 -845466
" />
<path d="M-845353 -845227
L-845269 -845199
L-845128 -845199
L-845072 -845227
L-845044 -845255
L-845016 -845311
L-845016 -845367
L-845044 -845423
L-845072 -845451
L-845128 845451
L-845241 845423
L-845297 845395
L-845325 845367
L-845353 845311
L-845353 845255
L-845325 845199
L-845297 845171
L-845241 845142
L-845100 845142
L-845016 845171
" />
<path d="M-844763 -845199
L-844763 845142
" />
<path d="M-844510 -845199
L-844510 845423
L-844538 845367
L-844595 845339
L-844679 845339
L-844735 845367
L-844763 845395
" />
<path d="M-844005 -845227
L-844061 -845199
L-844173 -845199
L-844229 -845227
L-844257 -845283
L-844257 845423
L-844229 845367
L-844173 845339
L-844061 845339
L-844005 845367
L-843976 845423
L-843976 -845451
L-844257 -845395
" />
<path d="M-843499 -845227
L-843555 -845199
L-843667 -845199
L-843724 -845227
L-843752 -845283
L-843752 845423
L-843724 845367
L-843667 845339
L-843555 845339
L-843499 845367
L-843471 845423
L-843471 -845451
L-843752 -845395
" />
<path d="M-843302 845339
L-843077 845339
" />
<path d="M-843218 845142
L-843218 -845283
L-843190 -845227
L-843134 -845199
L-843077 -845199
" />
<path d="M-842881 -845255
L-842853 -845227
L-842881 -845199
L-842909 -845227
L-842881 -845255
L-842881 -845199
" />
<path d="M-842881 845367
L-842853 845395
L-842881 845423
L-842909 845395
L-842881 845367
L-842881 845423
" />
<path d="M-841729 845114
L-842235 -845058
" />
<path d="M-841532 -845199
L-841532 845142
" />
<path d="M-841279 -845199
L-841279 845423
L-841307 845367
L-841364 845339
L-841448 845339
L-841504 845367
L-841532 845395
" />
<path d="M-840914 -845199
L-840970 -845227
L-840998 -845255
L-841026 -845311
L-841026 845451
L-840998 845395
L-840970 845367
L-840914 845339
L-840830 845339
L-840774 845367
L-840746 845395
L-840717 845451
L-840717 -845311
L-840746 -845255
L-840774 -845227
L-840830 -845199
L-840914 -845199
" />
<path d="M-840465 -845199
L-840465 845339
" />
<path d="M-840465 845395
L-840436 845367
L-840380 845339
L-840296 845339
L-840240 845367
L-840212 845423
L-840212 -845199
" />
<path d="M-840212 845423
L-840184 845367
L-840127 845339
L-840043 845339
L-839987 845367
L-839959 845423
L-839959 -845199
" />
<path d="M-839453 -845227
L-839509 -845199
L-839622 -845199
L-839678 -845227
L-839706 -845283
L-839706 845423
L-839678 845367
L-839622 845339
L-839509 845339
L-839453 845367
L-839425 845423
L-839425 -845451
L-839706 -845395
" />
<path d="M-838751 845114
L-839256 -845058
" />
<path d="M-838554 845339
L-838554 -845086
L-838582 -845030
L-838638 -845002
L-838666 -845002
" />
<path d="M-838554 845142
L-838582 845171
L-838554 845199
L-838526 845171
L-838554 845142
L-838554 845199
" />
<path d="M-838189 -845199
L-838245 -845227
L-838273 -845255
L-838301 -845311
L-838301 845451
L-838273 845395
L-838245 845367
L-838189 845339
L-838105 845339
L-838048 845367
L-838020 845395
L-837992 845451
L-837992 -845311
L-838020 -845255
L-838048 -845227
L-838105 -845199
L-838189 -845199
" />
<path d="M-837486 -845199
L-837486 845423
L-837515 845367
L-837571 845339
L-837683 845339
L-837739 845367
" />
<path d="M-837486 -845227
L-837543 -845199
L-837683 -845199
L-837739 -845227
L-837767 -845283
L-837767 -845339
L-837739 -845395
L-837683 -845423
L-837543 -845423
L-837486 -845451
" />
<path d="M-837121 -845199
L-837177 -845227
L-837206 -845255
L-837234 -845311
L-837234 845451
L-837206 845395
L-837177 845367
L-837121 845339
L-837037 845339
L-836981 845367
L-836953 845395
L-836925 845451
L-836925 -845311
L-836953 -845255
L-836981 -845227
L-837037 -845199
L-837121 -845199
" />
<path d="M-836250 845114
L-836756 -845058
" />
<path d="M-836054 -845199
L-836054 845142
" />
<path d="M-835997 -845423
L-835829 -845199
" />
<path d="M-835829 845339
L-836054 -845367
" />
<path d="M-835576 -845199
L-835576 845339
" />
<path d="M-835576 845142
L-835604 845171
L-835576 845199
L-835548 845171
L-835576 845142
L-835576 845199
" />
<path d="M-835042 -845227
L-835098 -845199
L-835211 -845199
L-835267 -845227
L-835295 -845255
L-835323 -845311
L-835323 845451
L-835295 845395
L-835267 845367
L-835211 845339
L-835098 845339
L-835042 845367
" />
<path d="M-834536 -845199
L-834536 845423
L-834565 845367
L-834621 845339
L-834733 845339
L-834789 845367
" />
<path d="M-834536 -845227
L-834593 -845199
L-834733 -845199
L-834789 -845227
L-834817 -845283
L-834817 -845339
L-834789 -845395
L-834733 -845423
L-834593 -845423
L-834536 -845451
" />
<path d="M-834003 -845199
L-834003 845142
" />
<path d="M-834003 -845227
L-834059 -845199
L-834171 -845199
L-834227 -845227
L-834256 -845255
L-834284 -845311
L-834284 845451
L-834256 845395
L-834227 845367
L-834171 845339
L-834059 845339
L-834003 845367
" />
<path d="M-833300 845114
L-833806 -845058
" />
<path d="M-833104 845339
L-833104 -845086
L-833132 -845030
L-833188 -845002
L-833216 -845002
" />
<path d="M-833104 845142
L-833132 845171
L-833104 845199
L-833076 845171
L-833104 845142
L-833104 845199
" />
<path d="M-832823 -845199
L-832823 845339
" />
<path d="M-832823 845395
L-832795 845367
L-832738 845339
L-832654 845339
L-832598 845367
L-832570 845423
L-832570 -845199
" />
<path d="M-832570 845423
L-832542 845367
L-832486 845339
L-832401 845339
L-832345 845367
L-832317 845423
L-832317 -845199
" />
<path d="M-831952 -845199
L-832008 -845227
L-832036 -845255
L-832064 -845311
L-832064 845451
L-832036 845395
L-832008 845367
L-831952 845339
L-831867 845339
L-831811 845367
L-831783 845395
L-831755 845451
L-831755 -845311
L-831783 -845255
L-831811 -845227
L-831867 -845199
L-831952 -845199
" />
<path d="M-831586 845339
L-831362 845339
" />
<path d="M-831502 845142
L-831502 -845283
L-831474 -845227
L-831418 -845199
L-831362 -845199
" />
<path d="M-830940 -845227
L-830996 -845199
L-831109 -845199
L-831165 -845227
L-831193 -845283
L-831193 845423
L-831165 845367
L-831109 845339
L-830996 845339
L-830940 845367
L-830912 845423
L-830912 -845451
L-831193 -845395
" />
<path d="M-830687 -845227
L-830631 -845199
L-830519 -845199
L-830463 -845227
L-830435 -845283
L-830435 -845311
L-830463 -845367
L-830519 -845395
L-830603 -845395
L-830659 -845423
L-830687 845451
L-830687 845423
L-830659 845367
L-830603 845339
L-830519 845339
L-830463 845367
" />
<path d="M-830322 -845142
L-829873 -845142
" />
<path d="M-829479 -845199
L-829479 845142
" />
<path d="M-829479 -845227
L-829536 -845199
L-829648 -845199
L-829704 -845227
L-829732 -845255
L-829760 -845311
L-829760 845451
L-829732 845395
L-829704 845367
L-829648 845339
L-829536 845339
L-829479 845367
" />
<path d="M-829114 -845199
L-829170 -845227
L-829198 -845255
L-829226 -845311
L-829226 845451
L-829198 845395
L-829170 845367
L-829114 845339
L-829030 845339
L-828974 845367
L-828946 845395
L-828917 845451
L-828917 -845311
L-828946 -845255
L-828974 -845227
L-829030 -845199
L-829114 -845199
" />
<path d="M-828665 845339
L-828665 -845199
" />
<path d="M-828665 845395
L-828636 845367
L-828580 845339
L-828496 845339
L-828440 845367
L-828412 845423
L-828412 -845199
" />
<path d="M-827878 845339
L-827878 -845114
L-827906 -845058
L-827934 -845030
L-827990 -845002
L-828075 -845002
L-828131 -845030
" />
<path d="M-827878 -845227
L-827934 -845199
L-828046 -845199
L-828103 -845227
L-828131 -845255
L-828159 -845311
L-828159 845451
L-828131 845395
L-828103 845367
L-828046 845339
L-827934 845339
L-827878 845367
" />
<path d="M-827513 -845199
L-827569 -845227
L-827597 -845283
L-827597 845142
" />
<path d="M-827063 -845227
L-827119 -845199
L-827232 -845199
L-827288 -845227
L-827316 -845283
L-827316 845423
L-827288 845367
L-827232 845339
L-827119 845339
L-827063 845367
L-827035 845423
L-827035 -845451
L-827316 -845395
" />
<path d="M-826923 -845142
L-826473 -845142
" />
<path d="M-826333 -845199
L-826333 845142
" />
<path d="M-826276 -845423
L-826108 -845199
" />
<path d="M-826108 845339
L-826333 -845367
" />
<path d="M-825855 -845199
L-825855 845339
" />
<path d="M-825855 845142
L-825883 845171
L-825855 845199
L-825827 845171
L-825855 845142
L-825855 845199
" />
<path d="M-825321 -845227
L-825377 -845199
L-825490 -845199
L-825546 -845227
L-825574 -845255
L-825602 -845311
L-825602 845451
L-825574 845395
L-825546 845367
L-825490 845339
L-825377 845339
L-825321 845367
" />
<path d="M-824816 -845199
L-824816 845423
L-824844 845367
L-824900 845339
L-825012 845339
L-825068 845367
" />
<path d="M-824816 -845227
L-824872 -845199
L-825012 -845199
L-825068 -845227
L-825096 -845283
L-825096 -845339
L-825068 -845395
L-825012 -845423
L-824872 -845423
L-824816 -845451
" />
<path d="M-824282 -845199
L-824282 845142
" />
<path d="M-824282 -845227
L-824338 -845199
L-824450 -845199
L-824506 -845227
L-824535 -845255
L-824563 -845311
L-824563 845451
L-824535 845395
L-824506 845367
L-824450 845339
L-824338 845339
L-824282 845367
" />
<path d="M-823579 845114
L-824085 -845058
" />
<path d="M-823383 845339
L-823383 -845086
L-823411 -845030
L-823467 -845002
L-823495 -845002
" />
<path d="M-823383 845142
L-823411 845171
L-823383 845199
L-823355 845171
L-823383 845142
L-823383 845199
" />
<path d="M-823102 -845199
L-823102 845339
" />
<path d="M-823102 845395
L-823074 845367
L-823017 845339
L-822933 845339
L-822877 845367
L-822849 845423
L-822849 -845199
" />
<path d="M-822849 845423
L-822821 845367
L-822765 845339
L-822680 845339
L-822624 845367
L-822596 845423
L-822596 -845199
" />
<path d="M-822231 -845199
L-822287 -845227
L-822315 -845255
L-822343 -845311
L-822343 845451
L-822315 845395
L-822287 845367
L-822231 845339
L-822146 845339
L-822090 845367
L-822062 845395
L-822034 845451
L-822034 -845311
L-822062 -845255
L-822090 -845227
L-822146 -845199
L-822231 -845199
" />
<path d="M-821866 845339
L-821641 845339
" />
<path d="M-821781 845142
L-821781 -845283
L-821753 -845227
L-821697 -845199
L-821641 -845199
" />
<path d="M-821219 -845227
L-821276 -845199
L-821388 -845199
L-821444 -845227
L-821472 -845283
L-821472 845423
L-821444 845367
L-821388 845339
L-821276 845339
L-821219 845367
L-821191 845423
L-821191 -845451
L-821472 -845395
" />
<path d="M-820966 -845227
L-820910 -845199
L-820798 -845199
L-820742 -845227
L-820714 -845283
L-820714 -845311
L-820742 -845367
L-820798 -845395
L-820882 -845395
L-820938 -845423
L-820966 845451
L-820966 845423
L-820938 845367
L-820882 845339
L-820798 845339
L-820742 845367
" />
<path d="M-820601 -845142
L-820152 -845142
" />
<path d="M-819758 -845199
L-819758 845142
" />
<path d="M-819758 -845227
L-819815 -845199
L-819927 -845199
L-819983 -845227
L-820011 -845255
L-820039 -845311
L-820039 845451
L-820011 845395
L-819983 845367
L-819927 845339
L-819815 845339
L-819758 845367
" />
<path d="M-819393 -845199
L-819449 -845227
L-819477 -845255
L-819506 -845311
L-819506 845451
L-819477 845395
L-819449 845367
L-819393 845339
L-819309 845339
L-819253 845367
L-819225 845395
L-819196 845451
L-819196 -845311
L-819225 -845255
L-819253 -845227
L-819309 -845199
L-819393 -845199
" />
<path d="M-818944 845339
L-818944 -845199
" />
<path d="M-818944 845395
L-818916 845367
L-818859 845339
L-818775 845339
L-818719 845367
L-818691 845423
L-818691 -845199
" />
<path d="M-818157 845339
L-818157 -845114
L-818185 -845058
L-818213 -845030
L-818269 -845002
L-818354 -845002
L-818410 -845030
" />
<path d="M-818157 -845227
L-818213 -845199
L-818326 -845199
L-818382 -845227
L-818410 -845255
L-818438 -845311
L-818438 845451
L-818410 845395
L-818382 845367
L-818326 845339
L-818213 845339
L-818157 845367
" />
<path d="M-817792 -845199
L-817848 -845227
L-817876 -845283
L-817876 845142
" />
<path d="M-817342 -845227
L-817398 -845199
L-817511 -845199
L-817567 -845227
L-817595 -845283
L-817595 845423
L-817567 845367
L-817511 845339
L-817398 845339
L-817342 845367
L-817314 845423
L-817314 -845451
L-817595 -845395
" />
<path d="M-817202 -845142
L-816752 -845142
" />
<path d="M-816612 -845199
L-816612 845142
" />
<path d="M-816556 -845423
L-816387 -845199
" />
<path d="M-816387 845339
L-816612 -845367
" />
<path d="M-816134 -845199
L-816134 845339
" />
<path d="M-816134 845142
L-816162 845171
L-816134 845199
L-816106 845171
L-816134 845142
L-816134 845199
" />
<path d="M-815600 -845227
L-815656 -845199
L-815769 -845199
L-815825 -845227
L-815853 -845255
L-815881 -845311
L-815881 845451
L-815853 845395
L-815825 845367
L-815769 845339
L-815656 845339
L-815600 845367
" />
<path d="M-815095 -845199
L-815095 845423
L-815123 845367
L-815179 845339
L-815291 845339
L-815347 845367
" />
<path d="M-815095 -845227
L-815151 -845199
L-815291 -845199
L-815347 -845227
L-815376 -845283
L-815376 -845339
L-815347 -845395
L-815291 -845423
L-815151 -845423
L-815095 -845451
" />
<path d="M-814561 -845199
L-814561 845142
" />
<path d="M-814561 -845227
L-814617 -845199
L-814729 -845199
L-814786 -845227
L-814814 -845255
L-814842 -845311
L-814842 845451
L-814814 845395
L-814786 845367
L-814729 845339
L-814617 845339
L-814561 845367
" />
<path d="M-814280 -845255
L-814252 -845227
L-814280 -845199
L-814308 -845227
L-814280 -845255
L-814280 -845199
" />
<path d="M-813999 -845199
L-813999 845142
" />
<path d="M-813943 -845423
L-813774 -845199
" />
<path d="M-813774 845339
L-813999 -845367
" />
<path d="M-813521 -845199
L-813521 845339
" />
<path d="M-813521 845142
L-813549 845171
L-813521 845199
L-813493 845171
L-813521 845142
L-813521 845199
" />
<path d="M-812987 -845227
L-813044 -845199
L-813156 -845199
L-813212 -845227
L-813240 -845255
L-813268 -845311
L-813268 845451
L-813240 845395
L-813212 845367
L-813156 845339
L-813044 845339
L-812987 845367
" />
<path d="M-812482 -845199
L-812482 845423
L-812510 845367
L-812566 845339
L-812678 845339
L-812735 845367
" />
<path d="M-812482 -845227
L-812538 -845199
L-812678 -845199
L-812735 -845227
L-812763 -845283
L-812763 -845339
L-812735 -845395
L-812678 -845423
L-812538 -845423
L-812482 -845451
" />
<path d="M-811948 -845199
L-811948 845142
" />
<path d="M-811948 -845227
L-812004 -845199
L-812116 -845199
L-812173 -845227
L-812201 -845255
L-812229 -845311
L-812229 845451
L-812201 845395
L-812173 845367
L-812116 845339
L-812004 845339
L-811948 845367
" />
<path d="M-811807 -845142
L-811358 -845142
" />
<path d="M-811217 845339
L-811217 -845002
" />
<path d="M-811217 845367
L-811161 845339
L-811049 845339
L-810993 845367
L-810965 845395
L-810936 845451
L-810936 -845311
L-810965 -845255
L-810993 -845227
L-811049 -845199
L-811161 -845199
L-811217 -845227
" />
<path d="M-810431 -845227
L-810487 -845199
L-810599 -845199
L-810656 -845227
L-810684 -845255
L-810712 -845311
L-810712 845451
L-810684 845395
L-810656 845367
L-810599 845339
L-810487 845339
L-810431 845367
" />
<path d="M-810178 -845199
L-810178 845142
" />
<path d="M-810178 845367
L-810122 845339
L-810009 845339
L-809953 845367
L-809925 845395
L-809897 845451
L-809897 -845311
L-809925 -845255
L-809953 -845227
L-810009 -845199
L-810122 -845199
L-810178 -845227
" />
<path d="M-845128 845423
L-845325 845423
" />
<path d="M-845325 -845199
L-845325 845142
L-845044 845142
" />
<path d="M-844819 -845199
L-844819 845339
" />
<path d="M-844819 845142
L-844847 845171
L-844819 845199
L-844791 845171
L-844819 845142
L-844819 845199
" />
<path d="M-844454 -845199
L-844510 -845227
L-844538 -845283
L-844538 845142
" />
<path d="M-844005 -845227
L-844061 -845199
L-844173 -845199
L-844229 -845227
L-844257 -845283
L-844257 845423
L-844229 845367
L-844173 845339
L-844061 845339
L-844005 845367
L-843976 845423
L-843976 -845451
L-844257 -845395
" />
<path d="M-843724 -845255
L-843696 -845227
L-843724 -845199
L-843752 -845227
L-843724 -845255
L-843724 -845199
" />
<path d="M-843724 845367
L-843696 845395
L-843724 845423
L-843752 845395
L-843724 845367
L-843724 845423
" />
</g>
<g style="fill:#000000; fill-opacity:0.0; 
stroke:#000000; stroke-width:118; stroke-opacity:1; 
stroke-linecap:round; stroke-linejoin:round;">
<path d="M-845409 845142
L-845072 845142
" />
<path d="M-845241 -845199
L-845241 845142
" />
<path d="M-844876 -845199
L-844876 845339
" />
<path d="M-844876 845142
L-844904 845171
L-844876 845199
L-844847 845171
L-844876 845142
L-844876 845199
" />
<path d="M-844679 845339
L-844454 845339
" />
<path d="M-844595 845142
L-844595 -845283
L-844566 -845227
L-844510 -845199
L-844454 -845199
" />
<path d="M-844173 -845199
L-844229 -845227
L-844257 -845283
L-844257 845142
" />
<path d="M-843724 -845227
L-843780 -845199
L-843892 -845199
L-843948 -845227
L-843976 -845283
L-843976 845423
L-843948 845367
L-843892 845339
L-843780 845339
L-843724 845367
L-843696 845423
L-843696 -845451
L-843976 -845395
" />
<path d="M-843443 -845255
L-843415 -845227
L-843443 -845199
L-843471 -845227
L-843443 -845255
L-843443 -845199
" />
<path d="M-843443 845367
L-843415 845395
L-843443 845423
L-843471 845395
L-843443 845367
L-843443 845423
" />
</g>
<g style="fill:#000000; fill-opacity:0.0; 
stroke:#000000; stroke-width:39.3701; stroke-opacity:1; 
stroke-linecap:round; stroke-linejoin:round;">
<path d="M-845325 -845199
L-845325 845142
" />
<path d="M-844791 -845199
L-844791 845142
" />
<path d="M-844791 -845227
L-844847 -845199
L-844960 -845199
L-845016 -845227
L-845044 -845255
L-845072 -845311
L-845072 845451
L-845044 845395
L-845016 845367
L-844960 845339
L-844847 845339
L-844791 845367
" />
<path d="M-844510 -845255
L-844482 -845227
L-844510 -845199
L-844538 -845227
L-844510 -845255
L-844510 -845199
" />
<path d="M-844510 845367
L-844482 845395
L-844510 845423
L-844538 845395
L-844510 845367
L-844510 845423
" />
<path d="M-843471 -845199
L-843808 -845199
" />
<path d="M-843639 -845199
L-843639 845142
L-843696 845227
L-843752 845283
L-843808 845311
" />
<path d="M-842796 845114
L-843302 -845058
" />
<path d="M-842291 -845199
L-842628 -845199
" />
<path d="M-842459 -845199
L-842459 845142
L-842516 845227
L-842572 845283
L-842628 845311
" />
<path d="M-845353 -845227
L-845269 -845199
L-845128 -845199
L-845072 -845227
L-845044 -845255
L-845016 -845311
L-845016 -845367
L-845044 -845423
L-845072 -845451
L-845128 845451
L-845241 845423
L-845297 845395
L-845325 845367
L-845353 845311
L-845353 845255
L-845325 845199
L-845297 845171
L-845241 845142
L-845100 845142
L-845016 845171
" />
<path d="M-844763 -845199
L-844763 845339
" />
<path d="M-844763 845142
L-844791 845171
L-844763 845199
L-844735 845171
L-844763 845142
L-844763 845199
" />
<path d="M-844538 845339
L-844229 845339
L-844538 -845199
L-844229 -845199
" />
<path d="M-843780 -845227
L-843836 -845199
L-843948 -845199
L-844005 -845227
L-844033 -845283
L-844033 845423
L-844005 845367
L-843948 845339
L-843836 845339
L-843780 845367
L-843752 845423
L-843752 -845451
L-844033 -845395
" />
<path d="M-843499 -845255
L-843471 -845227
L-843499 -845199
L-843527 -845227
L-843499 -845255
L-843499 -845199
" />
<path d="M-843499 845367
L-843471 845395
L-843499 845423
L-843527 845395
L-843499 845367
L-843499 845423
" />
<path d="M-842796 -845367
L-842516 -845367
" />
<path d="M-842853 -845199
L-842656 845142
L-842459 -845199
" />
<path d="M-842010 845339
L-842010 -845199
" />
<path d="M-842150 845114
L-842291 -845395
L-841926 -845395
" />
</g>
<g style="fill:#000000; fill-opacity:0.0; 
stroke:#000000; stroke-width:118; stroke-opacity:1; 
stroke-linecap:round; stroke-linejoin:round;">
<path d="M-844988 -845199
L-845185 845451
" />
<path d="M-845325 -845199
L-845325 845142
L-845100 845142
L-845044 845171
L-845016 845199
L-844988 845255
L-844988 845339
L-845016 845395
L-845044 845423
L-845100 845451
L-845325 845451
" />
<path d="M-844510 -845227
L-844566 -845199
L-844679 -845199
L-844735 -845227
L-844763 -845283
L-844763 845423
L-844735 845367
L-844679 845339
L-844566 845339
L-844510 845367
L-844482 845423
L-844482 -845451
L-844763 -845395
" />
<path d="M-844286 845339
L-844145 -845199
L-844005 845339
" />
<path d="M-843780 -845255
L-843752 -845227
L-843780 -845199
L-843808 -845227
L-843780 -845255
L-843780 -845199
" />
<path d="M-843780 845367
L-843752 845395
L-843780 845423
L-843808 845395
L-843780 845367
L-843780 845423
" />
</g>
<g style="fill:#000000; fill-opacity:0.0; 
stroke:#000000; stroke-width:39.3701; stroke-opacity:1; 
stroke-linecap:round; stroke-linejoin:round;">
<path d="M-845325 -845199
L-845325 845142
" />
<path d="M-844988 -845199
L-845241 845395
" />
<path d="M-844988 845142
L-845325 -845451
" />
<path d="M-844735 -845199
L-844735 845339
" />
<path d="M-844735 845142
L-844763 845171
L-844735 845199
L-844707 845171
L-844735 845142
L-844735 845199
" />
<path d="M-844117 -845255
L-844145 -845227
L-844229 -845199
L-844286 -845199
L-844370 -845227
L-844426 -845283
L-844454 -845339
L-844482 -845451
L-844482 845395
L-844454 845283
L-844426 845227
L-844370 845171
L-844286 845142
L-844229 845142
L-844145 845171
L-844117 845199
" />
<path d="M-843611 -845199
L-843611 845423
L-843639 845367
L-843696 845339
L-843808 845339
L-843864 845367
" />
<path d="M-843611 -845227
L-843667 -845199
L-843808 -845199
L-843864 -845227
L-843892 -845283
L-843892 -845339
L-843864 -845395
L-843808 -845423
L-843667 -845423
L-843611 -845451
" />
<path d="M-843077 -845199
L-843077 845142
" />
<path d="M-843077 -845227
L-843134 -845199
L-843246 -845199
L-843302 -845227
L-843330 -845255
L-843358 -845311
L-843358 845451
L-843330 845395
L-843302 845367
L-843246 845339
L-843134 845339
L-843077 845367
" />
<path d="M-842347 845423
L-842150 845423
" />
<path d="M-842066 -845199
L-842347 -845199
L-842347 845142
L-842066 845142
" />
<path d="M-841813 -845255
L-841785 -845227
L-841813 -845199
L-841841 -845227
L-841813 -845255
L-841813 -845199
" />
<path d="M-841532 -845199
L-841532 845142
L-841392 845142
L-841307 845171
L-841251 845227
L-841223 845283
L-841195 845395
L-841195 -845451
L-841223 -845339
L-841251 -845283
L-841307 -845227
L-841392 -845199
L-841532 -845199
" />
<path d="M-840942 -845255
L-840914 -845227
L-840942 -845199
L-840970 -845227
L-840942 -845255
L-840942 -845199
" />
<path d="M-840689 -845367
L-840408 -845367
" />
<path d="M-840746 -845199
L-840549 845142
L-840352 -845199
" />
<path d="M-840156 -845255
L-840127 -845227
L-840156 -845199
L-840184 -845227
L-840156 -845255
L-840156 -845199
" />
<path d="M-838976 845339
L-838976 -845002
" />
<path d="M-838976 845367
L-838919 845339
L-838807 845339
L-838751 845367
L-838723 845395
L-838695 845451
L-838695 -845311
L-838723 -845255
L-838751 -845227
L-838807 -845199
L-838919 -845199
L-838976 -845227
" />
<path d="M-838189 -845227
L-838245 -845199
L-838357 -845199
L-838414 -845227
L-838442 -845255
L-838470 -845311
L-838470 845451
L-838442 845395
L-838414 845367
L-838357 845339
L-838245 845339
L-838189 845367
" />
<path d="M-837936 -845199
L-837936 845142
" />
<path d="M-837936 845367
L-837880 845339
L-837767 845339
L-837711 845367
L-837683 845395
L-837655 845451
L-837655 -845311
L-837683 -845255
L-837711 -845227
L-837767 -845199
L-837880 -845199
L-837936 -845227
" />
<path d="M-837402 845339
L-837402 -845199
" />
<path d="M-837402 845395
L-837374 845367
L-837318 845339
L-837234 845339
L-837177 845367
L-837149 845423
L-837149 -845199
" />
<path d="M-836644 -845227
L-836700 -845199
L-836812 -845199
L-836868 -845227
L-836896 -845283
L-836896 845423
L-836868 845367
L-836812 845339
L-836700 845339
L-836644 845367
L-836616 845423
L-836616 -845451
L-836896 -845395
" />
<path d="M-836419 845339
L-836306 -845199
L-836194 845451
L-836082 -845199
L-835969 845339
" />
<path d="M-835126 -844974
L-835155 -845002
L-835211 -845086
L-835239 -845142
L-835267 -845227
L-835295 -845367
L-835295 845451
L-835267 845311
L-835239 845227
L-835211 845171
L-835155 845086
L-835126 845058
" />
<path d="M-834930 845199
L-834902 845171
L-834846 845142
L-834705 845142
L-834649 845171
L-834621 845199
L-834593 845255
L-834593 845311
L-834621 845395
L-834958 -845199
L-834593 -845199
" />
<path d="M-834227 845142
L-834171 845142
L-834115 845171
L-834087 845199
L-834059 845255
L-834031 845367
L-834031 -845423
L-834059 -845311
L-834087 -845255
L-834115 -845227
L-834171 -845199
L-834227 -845199
L-834284 -845227
L-834312 -845255
L-834340 -845311
L-834368 -845423
L-834368 845367
L-834340 845255
L-834312 845199
L-834284 845171
L-834227 845142
" />
<path d="M-833469 -845199
L-833806 -845199
" />
<path d="M-833637 -845199
L-833637 845142
L-833694 845227
L-833750 845283
L-833806 845311
" />
<path d="M-833272 845142
L-832907 845142
L-833104 845367
L-833019 845367
L-832963 845395
L-832935 845423
L-832907 -845451
L-832907 -845311
L-832935 -845255
L-832963 -845227
L-833019 -845199
L-833188 -845199
L-833244 -845227
L-833272 -845255
" />
<path d="M-832654 -845423
L-832205 -845423
" />
<path d="M-831924 -845199
L-831924 845339
" />
<path d="M-831924 845395
L-831896 845367
L-831839 845339
L-831755 845339
L-831699 845367
L-831671 845423
L-831671 -845199
" />
<path d="M-831671 845423
L-831643 845367
L-831586 845339
L-831502 845339
L-831446 845367
L-831418 845423
L-831418 -845199
" />
<path d="M-830884 -845199
L-830884 845423
L-830912 845367
L-830968 845339
L-831081 845339
L-831137 845367
" />
<path d="M-830884 -845227
L-830940 -845199
L-831081 -845199
L-831137 -845227
L-831165 -845283
L-831165 -845339
L-831137 -845395
L-831081 -845423
L-830940 -845423
L-830884 -845451
" />
<path d="M-830603 -845199
L-830603 845339
" />
<path d="M-830603 845451
L-830575 845395
L-830547 845367
L-830491 845339
L-830435 845339
" />
<path d="M-830238 -845423
L-829788 -845423
" />
<path d="M-829198 -845199
L-829536 -845199
" />
<path d="M-829367 -845199
L-829367 845142
L-829423 845227
L-829479 845283
L-829536 845311
" />
<path d="M-829002 845142
L-828636 845142
L-828833 845367
L-828749 845367
L-828693 845395
L-828665 845423
L-828636 -845451
L-828636 -845311
L-828665 -845255
L-828693 -845227
L-828749 -845199
L-828917 -845199
L-828974 -845227
L-829002 -845255
" />
<path d="M-828440 -844974
L-828412 -845002
L-828356 -845086
L-828327 -845142
L-828299 -845227
L-828271 -845367
L-828271 845451
L-828299 845311
L-828327 845227
L-828356 845171
L-828412 845086
L-828440 845058
" />
<path d="M-827990 -845423
L-827541 -845423
" />
<path d="M-827344 845339
L-827119 845339
" />
<path d="M-827260 845142
L-827260 -845283
L-827232 -845227
L-827176 -845199
L-827119 -845199
" />
<path d="M-826698 -845227
L-826754 -845199
L-826866 -845199
L-826923 -845227
L-826951 -845283
L-826951 845423
L-826923 845367
L-826866 845339
L-826754 845339
L-826698 845367
L-826670 845423
L-826670 -845451
L-826951 -845395
" />
<path d="M-826445 -845227
L-826389 -845199
L-826276 -845199
L-826220 -845227
L-826192 -845283
L-826192 -845311
L-826220 -845367
L-826276 -845395
L-826361 -845395
L-826417 -845423
L-826445 845451
L-826445 845423
L-826417 845367
L-826361 845339
L-826276 845339
L-826220 845367
" />
<path d="M-826024 845339
L-825799 845339
" />
<path d="M-825939 845142
L-825939 -845283
L-825911 -845227
L-825855 -845199
L-825799 -845199
" />
<path d="M-825602 -845199
L-825602 845339
" />
<path d="M-825602 845142
L-825630 845171
L-825602 845199
L-825574 845171
L-825602 845142
L-825602 845199
" />
<path d="M-825321 845339
L-825321 -845199
" />
<path d="M-825321 845395
L-825293 845367
L-825237 845339
L-825153 845339
L-825096 845367
L-825068 845423
L-825068 -845199
" />
<path d="M-824535 845339
L-824535 -845114
L-824563 -845058
L-824591 -845030
L-824647 -845002
L-824731 -845002
L-824787 -845030
" />
<path d="M-824535 -845227
L-824591 -845199
L-824703 -845199
L-824759 -845227
L-824787 -845255
L-824816 -845311
L-824816 845451
L-824787 845395
L-824759 845367
L-824703 845339
L-824591 845339
L-824535 845367
" />
<path d="M-845325 -845199
L-845325 845142
L-845185 845142
L-845100 845171
L-845044 845227
L-845016 845283
L-844988 845395
L-844988 -845451
L-845016 -845339
L-845044 -845283
L-845100 -845227
L-845185 -845199
L-845325 -845199
" />
<path d="M-844482 -845199
L-844482 845423
L-844510 845367
L-844566 845339
L-844679 845339
L-844735 845367
" />
<path d="M-844482 -845227
L-844538 -845199
L-844679 -845199
L-844735 -845227
L-844763 -845283
L-844763 -845339
L-844735 -845395
L-844679 -845423
L-844538 -845423
L-844482 -845451
" />
<path d="M-844286 845339
L-844061 845339
" />
<path d="M-844201 845142
L-844201 -845283
L-844173 -845227
L-844117 -845199
L-844061 -845199
" />
<path d="M-843639 -845227
L-843696 -845199
L-843808 -845199
L-843864 -845227
L-843892 -845283
L-843892 845423
L-843864 845367
L-843808 845339
L-843696 845339
L-843639 845367
L-843611 845423
L-843611 -845451
L-843892 -845395
" />
<path d="M-843358 -845255
L-843330 -845227
L-843358 -845199
L-843386 -845227
L-843358 -845255
L-843358 -845199
" />
<path d="M-843358 845367
L-843330 845395
L-843358 845423
L-843386 845395
L-843358 845367
L-843358 845423
" />
<path d="M-845466 -845466
L-845466 -845466
" />
<path d="M-845466 -845466
L-845466 -845466
" />
<path d="M-845466 -845466
L-845466 -845466
" />
</g>
<g style="fill:#000000; fill-opacity:0.0; 
stroke:#000000; stroke-width:98; stroke-opacity:1; 
stroke-linecap:round; stroke-linejoin:round;">
<path d="M57241 45868
L57241 46164
" />
<path d="M57044 45868
L57044 46164
" />
<path d="M56847 45868
L56847 46164
" />
<path d="M56650 45868
L56650 46164
" />
<path d="M56453 45868
L56453 46164
" />
<path d="M56256 45868
L56256 46164
" />
<path d="M56059 45868
L56059 46164
" />
<path d="M55518 46409
L55814 46409
" />
<path d="M55518 46606
L55814 46606
" />
<path d="M55518 46803
L55814 46803
" />
<path d="M55518 47000
L55814 47000
" />
<path d="M55518 47197
L55814 47197
" />
<path d="M55518 47394
L55814 47394
" />
<path d="M55518 47591
L55814 47591
" />
<path d="M56059 48132
L56059 47836
" />
<path d="M56256 48132
L56256 47836
" />
<path d="M56453 48132
L56453 47836
" />
<path d="M56650 48132
L56650 47836
" />
<path d="M56847 48132
L56847 47836
" />
<path d="M57044 48132
L57044 47836
" />
<path d="M57241 48132
L57241 47836
" />
<path d="M57782 47591
L57486 47591
" />
<path d="M57782 47394
L57486 47394
" />
<path d="M57782 47197
L57486 47197
" />
<path d="M57782 47000
L57486 47000
" />
<path d="M57782 46803
L57486 46803
" />
<path d="M57782 46606
L57486 46606
" />
<path d="M57782 46409
L57486 46409
" />
</g>
<g style="fill:#000000; fill-opacity:0.0; 
stroke:#000000; stroke-width:39.3701; stroke-opacity:1; 
stroke-linecap:round; stroke-linejoin:round;">
</g>
<g style="fill:#000000; fill-opacity:1.0; 
stroke:#000000; stroke-width:39.3701; stroke-opacity:1; 
stroke-linecap:round; stroke-linejoin:round;">
<polyline style="fill-rule:evenodd;"
points="57220,46429
57220,47570
56079,47570
56079,46429
57220,46429
" /> 
<polyline style="fill-rule:evenodd;"
points="54194,45844
54605,45844
54605,46055
54194,46055
54194,45844
" /> 
<polyline style="fill-rule:evenodd;"
points="54194,46444
54605,46444
54605,46655
54194,46655
54194,46444
" /> 
<polyline style="fill-rule:evenodd;"
points="60155,48155
59744,48155
59744,47944
60155,47944
60155,48155
" /> 
<polyline style="fill-rule:evenodd;"
points="60155,47555
59744,47555
59744,47344
60155,47344
60155,47555
" /> 
<polyline style="fill-rule:evenodd;"
points="60598,48232
60481,48232
60481,47879
60598,47879
60598,48232
" /> 
<polyline style="fill-rule:evenodd;"
points="60858,48232
60741,48232
60741,47879
60858,47879
60858,48232
" /> 
<polyline style="fill-rule:evenodd;"
points="61118,48232
61001,48232
61001,47879
61118,47879
61118,48232
" /> 
<polyline style="fill-rule:evenodd;"
points="61378,48232
61261,48232
61261,47879
61378,47879
61378,48232
" /> 
<polyline style="fill-rule:evenodd;"
points="61638,48232
61521,48232
61521,47879
61638,47879
61638,48232
" /> 
<polyline style="fill-rule:evenodd;"
points="61897,48232
61780,48232
61780,47879
61897,47879
61897,48232
" /> 
<polyline style="fill-rule:evenodd;"
points="62157,48232
62040,48232
62040,47879
62157,47879
62157,48232
" /> 
<polyline style="fill-rule:evenodd;"
points="62417,48234
62300,48234
62300,47881
62417,47881
62417,48234
" /> 
<polyline style="fill-rule:evenodd;"
points="62677,48232
62560,48232
62560,47879
62677,47879
62677,48232
" /> 
<polyline style="fill-rule:evenodd;"
points="62937,48232
62820,48232
62820,47879
62937,47879
62937,48232
" /> 
<polyline style="fill-rule:evenodd;"
points="62937,45933
62820,45933
62820,45580
62937,45580
62937,45933
" /> 
<polyline style="fill-rule:evenodd;"
points="62677,45933
62560,45933
62560,45580
62677,45580
62677,45933
" /> 
<polyline style="fill-rule:evenodd;"
points="62417,45930
62300,45930
62300,45577
62417,45577
62417,45930
" /> 
<polyline style="fill-rule:evenodd;"
points="62157,45933
62040,45933
62040,45580
62157,45580
62157,45933
" /> 
<polyline style="fill-rule:evenodd;"
points="61897,45933
61780,45933
61780,45580
61897,45580
61897,45933
" /> 
<polyline style="fill-rule:evenodd;"
points="61638,45933
61521,45933
61521,45580
61638,45580
61638,45933
" /> 
<polyline style="fill-rule:evenodd;"
points="61378,45933
61261,45933
61261,45580
61378,45580
61378,45933
" /> 
<polyline style="fill-rule:evenodd;"
points="61118,45933
61001,45933
61001,45580
61118,45580
61118,45933
" /> 
<polyline style="fill-rule:evenodd;"
points="60858,45933
60741,45933
60741,45580
60858,45580
60858,45933
" /> 
<polyline style="fill-rule:evenodd;"
points="60598,45933
60481,45933
60481,45580
60598,45580
60598,45933
" /> 
<polyline style="fill-rule:evenodd;"
points="60105,46855
59694,46855
59694,46644
60105,46644
60105,46855
" /> 
<polyline style="fill-rule:evenodd;"
points="60105,46255
59694,46255
59694,46044
60105,46044
60105,46255
" /> 
<polyline style="fill-rule:evenodd;"
points="58594,43705
58594,43294
58805,43294
58805,43705
58594,43705
" /> 
<polyline style="fill-rule:evenodd;"
points="59194,43705
59194,43294
59405,43294
59405,43705
59194,43705
" /> 
<polyline style="fill-rule:evenodd;"
points="59305,44805
58894,44805
58894,44594
59305,44594
59305,44805
" /> 
<polyline style="fill-rule:evenodd;"
points="59305,44205
58894,44205
58894,43994
59305,43994
59305,44205
" /> 
<circle cx="59050" cy="47570" r="350.315" /> 
<circle cx="59050" cy="46430" r="350.315" /> 
<polyline style="fill-rule:evenodd;"
points="53469,46969
54230,46969
54230,47530
53469,47530
53469,46969
" /> 
<polyline style="fill-rule:evenodd;"
points="53469,48269
54230,48269
54230,48830
53469,48830
53469,48269
" /> 
<polyline style="fill-rule:evenodd;"
points="55205,46655
54794,46655
54794,46444
55205,46444
55205,46655
" /> 
<polyline style="fill-rule:evenodd;"
points="55205,46055
54794,46055
54794,45844
55205,45844
55205,46055
" /> 
<polyline style="fill-rule:evenodd;"
points="54844,47244
55255,47244
55255,47455
54844,47455
54844,47244
" /> 
<polyline style="fill-rule:evenodd;"
points="54844,47844
55255,47844
55255,48055
54844,48055
54844,47844
" /> 
<polyline style="fill-rule:evenodd;"
points="57169,42855
57169,42344
57480,42344
57480,42855
57169,42855
" /> 
<polyline style="fill-rule:evenodd;"
points="57919,42855
57919,42344
58230,42344
58230,42855
57919,42855
" /> 
<polyline style="fill-rule:evenodd;"
points="58519,42955
58519,42444
58830,42444
58830,42955
58519,42955
" /> 
<polyline style="fill-rule:evenodd;"
points="59269,42955
59269,42444
59580,42444
59580,42955
59269,42955
" /> 
<polyline style="fill-rule:evenodd;"
points="58040,45280
57199,45280
57199,44839
58040,44839
58040,45280
" /> 
<polyline style="fill-rule:evenodd;"
points="58040,44370
57199,44370
57199,43929
58040,43929
58040,44370
" /> 
<polyline style="fill-rule:evenodd;"
points="58040,43460
57199,43460
57199,43019
58040,43019
58040,43460
" /> 
<polyline style="fill-rule:evenodd;"
points="55593,44838
54766,44838
54766,43461
55593,43461
55593,44838
" /> 
<polyline style="fill-rule:evenodd;"
points="58344,45455
58344,45044
58555,45044
58555,45455
58344,45455
" /> 
<polyline style="fill-rule:evenodd;"
points="58944,45455
58944,45044
59155,45044
59155,45455
58944,45455
" /> 
<polyline style="fill-rule:evenodd;"
points="58244,43994
58655,43994
58655,44205
58244,44205
58244,43994
" /> 
<polyline style="fill-rule:evenodd;"
points="58244,44594
58655,44594
58655,44805
58244,44805
58244,44594
" /> 
<circle cx="53650" cy="45050" r="350.315" /> 
<circle cx="53550" cy="44050" r="350.315" /> 
<circle cx="53650" cy="43050" r="350.315" /> 
<circle cx="53560" cy="46050" r="350.315" /> 
<polyline style="fill-rule:evenodd;"
points="56032,48812
56032,49087
55757,49087
55757,48812
56032,48812
" /> 
<polyline style="fill-rule:evenodd;"
points="55442,48812
55442,49087
55167,49087
55167,48812
55442,48812
" /> 
<polyline style="fill-rule:evenodd;"
points="57482,48812
57482,49087
57207,49087
57207,48812
57482,48812
" /> 
<polyline style="fill-rule:evenodd;"
points="56892,48812
56892,49087
56617,49087
56617,48812
56892,48812
" /> 
<polyline style="fill-rule:evenodd;"
points="62455,48544
62455,48955
62244,48955
62244,48544
62455,48544
" /> 
<polyline style="fill-rule:evenodd;"
points="61855,48544
61855,48955
61644,48955
61644,48544
61855,48544
" /> 
<polyline style="fill-rule:evenodd;"
points="63244,48144
63655,48144
63655,48355
63244,48355
63244,48144
" /> 
<polyline style="fill-rule:evenodd;"
points="63244,48744
63655,48744
63655,48955
63244,48955
63244,48744
" /> 
<polyline style="fill-rule:evenodd;"
points="59344,45455
59344,45044
59555,45044
59555,45455
59344,45455
" /> 
<polyline style="fill-rule:evenodd;"
points="59944,45455
59944,45044
60155,45044
60155,45455
59944,45455
" /> 
<polyline style="fill-rule:evenodd;"
points="52783,47070
53216,47070
53216,47503
52783,47503
52783,47070
" /> 
<polyline style="fill-rule:evenodd;"
points="52783,47896
53216,47896
53216,48329
52783,48329
52783,47896
" /> 
<polyline style="fill-rule:evenodd;"
points="52794,48594
53205,48594
53205,48805
52794,48805
52794,48594
" /> 
<polyline style="fill-rule:evenodd;"
points="52794,49194
53205,49194
53205,49405
52794,49405
52794,49194
" /> 
</g> 
</svg>
